<?xml version="1.0" encoding="UTF-8" standalone="no"?>
<!DOCTYPE svg PUBLIC "-//W3C//DTD SVG 1.1//EN" "http://www.w3.org/Graphics/SVG/1.1/DTD/svg11.dtd">
<svg xmlns="http://www.w3.org/2000/svg" version="1.1" viewBox="0 0 1024 1024">
<g stroke-width="2.00" fill="none" stroke-linecap="butt">
<path stroke="#a39194" vector-effect="non-scaling-stroke" d="
  M 494.50 1018.21
  C 590.39 1021.46 689.69 997.82 771.25 946.29"
/>
<path stroke="#eeaf91" vector-effect="non-scaling-stroke" d="
  M 771.25 946.29
  C 882.94 877.58 968.00 763.88 999.65 636.25
  C 1014.54 576.22 1017.97 513.59 1011.41 452.18
  C 986.96 222.96 804.55 38.46 576.78 9.74
  C 439.14 -7.62 299.60 32.47 192.19 120.49
  C 55.38 232.62 -9.83 405.37 13.36 580.19
  C 27.34 685.62 74.49 782.58 147.06 860.19
  C 237.20 956.58 359.72 1012.68 491.73 1018.56
  Q 492.62 1018.60 494.50 1018.21"
/>
<path stroke="#914126" vector-effect="non-scaling-stroke" d="
  M 771.25 946.29
  Q 734.62 946.89 699.43 936.72
  Q 697.91 936.28 699.46 935.98
  C 757.72 924.67 809.17 893.55 831.80 836.26
  Q 832.07 835.57 831.45 835.99
  C 809.27 851.04 787.71 860.67 760.42 861.61
  Q 758.77 861.66 760.08 860.66
  C 791.37 836.61 810.30 796.76 812.81 757.57
  Q 812.88 756.53 812.22 757.33
  C 789.87 784.41 759.77 798.30 724.42 796.03
  A 0.30 0.30 0.0 0 1 724.25 795.49
  Q 759.45 768.71 773.68 726.75
  Q 773.89 726.14 774.39 726.53
  C 787.68 736.82 799.32 742.17 813.07 748.68
  C 825.74 754.68 833.13 764.60 841.02 775.96
  C 851.57 791.13 869.27 802.23 888.33 797.10
  Q 900.51 793.82 908.06 785.32
  Q 915.61 776.81 929.17 758.42
  C 942.66 740.10 945.52 721.60 929.36 703.12
  C 922.77 695.58 916.00 688.64 910.37 679.74
  C 900.98 664.89 893.81 646.96 887.68 630.52
  A 0.29 0.29 0.0 0 1 888.17 630.22
  Q 894.34 636.88 901.66 642.09
  C 912.84 650.04 930.74 653.50 941.17 642.33
  C 945.05 638.18 948.25 631.09 951.44 625.48
  C 956.16 617.18 962.96 608.60 968.00 599.54
  C 977.53 582.42 970.89 564.36 956.74 552.51
  Q 950.50 547.29 944.43 541.15
  C 935.69 532.29 926.30 518.96 919.77 510.97
  Q 904.35 492.08 886.32 475.65
  C 886.08 475.42 886.08 475.51 885.75 475.46"
/>
<path stroke="#eaa36a" vector-effect="non-scaling-stroke" d="
  M 885.75 475.46
  C 889.66 466.09 891.46 457.43 894.03 448.18
  C 896.16 440.53 900.14 437.29 904.94 431.94
  C 920.66 414.43 907.15 391.89 885.46 391.32
  C 882.20 391.23 879.49 391.95 876.36 390.75
  Q 856.26 383.09 836.37 374.95
  Q 836.11 374.84 835.95 374.61
  L 835.71 374.25"
/>
<path stroke="#914126" vector-effect="non-scaling-stroke" d="
  M 835.71 374.25
  C 834.58 369.84 833.47 363.78 829.69 360.81
  C 822.63 355.24 817.21 351.06 813.66 342.43
  C 812.27 339.05 812.54 334.98 812.68 331.33
  Q 812.69 330.92 812.25 330.21"
/>
<path stroke="#eaa36a" vector-effect="non-scaling-stroke" d="
  M 812.25 330.21
  L 825.63 314.40
  Q 826.09 313.86 825.41 314.07
  C 820.85 315.44 810.73 318.10 806.95 314.31
  C 795.78 303.10 785.17 291.65 773.14 283.83
  Q 772.70 283.55 772.65 283.04
  C 770.66 265.84 766.93 248.92 759.48 233.01
  C 748.62 209.81 725.51 196.20 701.09 191.07
  A 0.25 0.25 0.0 0 0 700.96 191.55
  C 739.89 203.93 745.46 244.76 739.97 279.31
  Q 739.89 279.84 739.36 279.71
  L 723.25 275.54"
/>
<path stroke="#e48132" vector-effect="non-scaling-stroke" d="
  M 723.25 275.54
  L 720.52 271.64"
/>
<path stroke="#eaa36a" vector-effect="non-scaling-stroke" d="
  M 720.52 271.64
  C 696.32 209.47 640.07 158.65 576.50 139.26
  Q 546.78 130.20 515.74 128.38
  C 485.28 126.59 454.35 126.02 424.07 122.46
  C 396.70 119.24 384.42 105.54 395.70 77.78
  Q 396.49 75.83 395.46 77.66
  Q 388.84 89.50 388.99 103.02
  C 389.18 120.38 412.71 131.44 426.75 135.02
  Q 439.02 138.15 455.51 140.90"
/>
<path stroke="#914126" vector-effect="non-scaling-stroke" d="
  M 455.51 140.90
  Q 433.52 141.71 411.79 145.06
  Q 410.75 145.22 411.80 145.24
  C 441.61 145.79 466.91 152.20 490.25 171.61
  A 0.53 0.53 0.0 0 1 489.80 172.53
  C 447.62 163.71 404.93 158.95 362.00 164.52
  Q 361.52 164.58 361.50 165.21"
/>
<path stroke="#eeaf91" vector-effect="non-scaling-stroke" d="
  M 361.50 165.21
  C 307.46 165.07 254.97 171.63 203.56 188.54
  Q 201.75 189.13 200.62 189.61
  Q 199.17 190.21 200.71 189.89
  Q 238.43 181.87 277.00 180.96"
/>
<path stroke="#e48132" vector-effect="non-scaling-stroke" d="
  M 277.00 180.96
  C 340.64 181.02 401.76 188.14 460.98 207.51
  Q 461.35 207.63 461.26 208.01
  Q 461.12 208.58 461.50 209.21"
/>
<path stroke="#914126" vector-effect="non-scaling-stroke" d="
  M 461.50 209.21
  C 447.33 207.22 433.71 205.03 419.00 204.00
  Q 349.25 199.10 279.01 212.70
  Q 276.79 213.13 279.04 213.26
  Q 303.07 214.67 328.31 216.43
  C 342.78 217.43 358.24 218.27 372.29 222.00"
/>
<path stroke="#eaa36a" vector-effect="non-scaling-stroke" d="
  M 372.29 222.00
  Q 372.72 223.60 374.25 224.46"
/>
<path stroke="#914126" vector-effect="non-scaling-stroke" d="
  M 374.25 224.46
  Q 363.83 228.00 353.84 232.62
  Q 330.09 243.63 306.39 254.95"
/>
<path stroke="#eaa36a" vector-effect="non-scaling-stroke" d="
  M 306.39 254.95
  Q 297.86 253.54 287.98 248.03
  Q 259.77 232.29 235.41 211.41
  A 0.15 0.15 0.0 0 0 235.18 211.61
  C 242.04 221.95 249.40 233.17 257.80 242.05
  Q 259.43 243.77 260.67 245.81"
/>
<path stroke="#e48132" vector-effect="non-scaling-stroke" d="
  M 260.67 245.81
  Q 277.54 267.31 299.25 283.96"
/>
<path stroke="#914126" vector-effect="non-scaling-stroke" d="
  M 299.25 283.96
  C 279.30 297.03 254.98 287.43 237.68 274.43
  A 0.19 0.19 0.0 0 0 237.41 274.68
  C 245.53 287.50 254.71 300.21 266.50 309.96"
/>
<path stroke="#eaa36a" vector-effect="non-scaling-stroke" d="
  M 266.50 309.96
  Q 259.03 310.66 251.60 311.32
  Q 195.14 316.30 147.51 346.13
  A 0.26 0.25 21.9 0 0 147.71 346.59
  Q 186.75 337.35 226.50 340.21"
/>
<path stroke="#914126" vector-effect="non-scaling-stroke" d="
  M 226.50 340.21
  L 226.09 340.23
  Q 225.61 340.27 225.20 340.51
  C 220.43 343.38 215.64 344.90 209.49 348.42
  C 182.81 363.65 160.54 387.17 145.25 413.77
  Q 144.56 414.98 145.64 414.10
  C 156.55 405.27 168.67 398.31 183.57 393.58
  Q 196.22 389.57 211.32 388.07"
/>
<path stroke="#eaa36a" vector-effect="non-scaling-stroke" d="
  M 211.32 388.07
  C 210.80 388.82 210.16 389.68 209.32 390.09
  C 164.42 411.99 130.51 450.61 109.04 494.86
  A 0.13 0.13 0.0 0 0 109.25 495.00
  Q 134.83 467.80 169.40 453.59"
/>
<path stroke="#914126" vector-effect="non-scaling-stroke" d="
  M 169.40 453.59
  L 169.54 454.61
  Q 169.61 455.13 169.25 455.50
  C 139.09 486.84 125.26 528.93 125.64 571.68
  A 0.17 0.17 0.0 0 0 125.97 571.72
  Q 131.95 546.37 151.35 529.20
  Q 151.58 529.00 151.88 529.00
  L 152.21 529.00"
/>
<path stroke="#eaa36a" vector-effect="non-scaling-stroke" d="
  M 152.21 529.00
  Q 152.31 529.52 152.24 529.75
  Q 137.80 578.80 140.80 630.02
  A 0.18 0.18 0.0 0 0 141.16 630.03
  C 145.92 599.03 159.91 565.12 183.68 543.78
  Q 184.12 543.39 184.08 543.98
  Q 182.98 559.82 183.21 575.50"
/>
<path stroke="#914126" vector-effect="non-scaling-stroke" d="
  M 183.21 575.50
  C 182.73 578.65 182.87 581.67 181.63 584.63
  C 179.63 589.40 177.34 594.32 175.77 598.97
  C 158.51 650.08 163.15 707.56 177.24 758.58
  Q 177.51 759.55 177.74 758.57
  C 183.33 734.54 189.35 711.52 199.04 688.75"
/>
<path stroke="#eaa36a" vector-effect="non-scaling-stroke" d="
  M 199.04 688.75
  Q 199.47 689.25 199.78 690.49
  Q 214.22 748.77 244.38 801.94
  Q 244.44 802.05 244.75 801.96"
/>
<path stroke="#914126" vector-effect="non-scaling-stroke" d="
  M 244.75 801.96
  Q 268.05 880.21 325.83 937.71
  A 0.11 0.11 0.0 0 0 326.01 937.57
  Q 308.60 909.07 298.46 877.31
  Q 295.45 867.89 292.55 858.16
  A 0.25 0.24 -66.3 0 1 293.00 857.98
  Q 312.05 899.00 340.89 934.10
  C 344.71 938.74 352.72 944.28 356.74 947.56
  Q 404.51 986.59 462.58 1007.87
  Q 467.17 1009.55 481.92 1014.67
  C 485.67 1015.98 490.35 1016.60 494.50 1018.21"
/>
<path stroke="#9f846d" vector-effect="non-scaling-stroke" d="
  M 777.25 484.04
  Q 781.14 503.51 773.83 519.94
  Q 772.15 523.71 775.34 521.09
  Q 789.97 509.06 796.56 491.15"
/>
<path stroke="#9f846d" vector-effect="non-scaling-stroke" d="
  M 828.50 498.04
  Q 826.78 511.57 819.72 522.85
  A 0.46 0.46 0.0 0 0 820.35 523.49
  C 832.72 516.06 837.51 507.28 843.79 495.00"
/>
<path stroke="#9f846d" vector-effect="non-scaling-stroke" d="
  M 850.50 494.04
  Q 848.47 507.58 842.36 519.57
  A 0.42 0.42 0.0 0 0 842.98 520.10
  Q 856.88 510.22 863.46 494.50"
/>
<path stroke="#9f846d" vector-effect="non-scaling-stroke" d="
  M 728.77 729.76
  Q 729.70 728.59 730.39 727.17
  Q 746.86 693.21 750.07 655.72
  A 0.24 0.24 0.0 0 0 749.64 655.54
  Q 739.95 667.23 728.25 676.79"
/>
<path stroke="#7d2128" vector-effect="non-scaling-stroke" d="
  M 728.25 676.79
  C 726.34 675.33 720.44 670.14 718.50 669.79"
/>
<path stroke="#914126" vector-effect="non-scaling-stroke" d="
  M 718.50 669.79
  Q 710.45 664.45 701.56 660.64
  Q 701.00 660.39 701.11 661.00
  Q 704.16 677.06 702.54 693.37
  Q 702.49 693.82 702.89 694.03
  L 703.25 694.21"
/>
<path stroke="#9f846d" vector-effect="non-scaling-stroke" d="
  M 703.25 694.21
  Q 665.45 716.81 621.25 717.34
  Q 620.60 717.35 621.14 716.99
  Q 640.67 704.20 654.29 685.25"
/>
<path stroke="#914126" vector-effect="non-scaling-stroke" d="
  M 654.29 685.25
  Q 656.76 684.09 658.91 682.38
  Q 674.21 670.22 685.53 654.16
  Q 685.83 653.73 685.37 653.49
  Q 679.24 650.32 672.79 648.25"
/>
<path stroke="#9f846d" vector-effect="non-scaling-stroke" d="
  M 672.79 648.25
  Q 678.99 628.63 681.79 608.01
  Q 682.20 605.00 680.56 607.55
  Q 668.95 625.57 651.25 640.29"
/>
<path stroke="#914126" vector-effect="non-scaling-stroke" d="
  M 651.25 640.29
  C 638.84 636.82 623.19 634.33 610.73 637.89
  Q 590.69 643.60 578.21 661.73
  A 0.34 0.34 0.0 0 1 577.59 661.48
  Q 578.17 658.23 578.58 654.52
  C 581.42 628.74 594.23 596.01 618.39 582.79
  A 0.31 0.30 37.4 0 0 618.31 582.23
  C 574.96 571.75 523.75 584.31 494.20 619.18
  Q 469.36 648.49 478.21 686.25"
/>
<path stroke="#9f846d" vector-effect="non-scaling-stroke" d="
  M 478.21 686.25
  Q 425.38 661.50 400.96 608.50"
/>
<path stroke="#9f846d" vector-effect="non-scaling-stroke" d="
  M 399.29 604.25
  Q 394.10 590.47 391.46 576.00"
/>
<path stroke="#996335" vector-effect="non-scaling-stroke" d="
  M 505.89 460.10
  C 534.95 457.63 563.39 463.36 590.43 475.09
  Q 596.03 477.52 610.50 484.71"
/>
<path stroke="#996335" vector-effect="non-scaling-stroke" d="
  M 559.04 547.25
  C 572.89 533.41 589.82 527.35 609.47 527.32
  Q 648.30 527.26 679.87 548.38
  C 694.01 557.84 707.04 571.52 718.04 584.71
  Q 733.86 603.71 748.87 623.42
  Q 749.17 623.82 749.67 623.90
  Q 769.78 627.22 790.04 625.59
  C 801.30 624.68 805.50 618.27 805.96 607.29"
/>
<path stroke="#9f846d" vector-effect="non-scaling-stroke" d="
  M 806.00 593.54
  Q 821.06 582.73 824.18 564.36
  A 0.24 0.24 0.0 0 0 823.78 564.15
  Q 814.78 572.53 804.26 578.76
  C 803.36 579.29 802.47 580.46 801.79 581.25"
/>
<path stroke="#996335" vector-effect="non-scaling-stroke" d="
  M 801.79 581.25
  Q 804.19 575.68 805.46 569.75"
/>
<path stroke="#9f846d" vector-effect="non-scaling-stroke" d="
  M 805.46 569.75
  Q 806.80 562.98 806.88 555.99
  A 0.31 0.31 0.0 0 0 806.31 555.81
  Q 798.95 566.32 788.79 572.93"
/>
<path stroke="#9f846d" vector-effect="non-scaling-stroke" d="
  M 306.39 254.95
  Q 318.27 259.00 330.21 261.77"
/>
<path stroke="#fbf3d8" vector-effect="non-scaling-stroke" d="
  M 330.21 261.77
  Q 331.18 264.02 333.71 264.27
  Q 334.19 264.32 334.18 264.81
  Q 334.15 266.58 335.17 269.27
  Q 337.65 275.75 340.75 287.71"
/>
<path stroke="#f1c579" vector-effect="non-scaling-stroke" d="
  M 340.75 287.71
  Q 312.06 280.62 290.50 267.00
  Q 282.90 262.20 260.67 245.81"
/>
<path stroke="#a39194" vector-effect="non-scaling-stroke" d="
  M 423.00 266.29
  C 391.74 269.15 360.92 268.46 330.21 261.77"
/>
<path stroke="#996335" vector-effect="non-scaling-stroke" d="
  M 679.50 320.04
  C 694.14 324.28 712.83 323.33 725.18 323.75
  Q 733.85 324.05 739.93 327.09
  C 750.64 332.45 764.62 340.82 770.99 325.46"
/>
<path stroke="#996335" vector-effect="non-scaling-stroke" d="
  M 773.75 317.46
  Q 776.33 325.54 775.89 334.00
  Q 775.87 334.50 776.37 334.52
  L 799.04 335.29"
/>
<path stroke="#996335" vector-effect="non-scaling-stroke" d="
  M 805.54 354.00
  C 793.60 344.25 781.41 349.31 770.78 357.63
  Q 770.33 357.98 770.81 358.29
  L 777.21 362.41"
/>
<path stroke="#996335" vector-effect="non-scaling-stroke" d="
  M 673.20 335.66
  L 663.17 319.28"
/>
<path stroke="#f5d1a0" vector-effect="non-scaling-stroke" d="
  M 340.75 287.71
  Q 348.63 289.88 356.75 290.79"
/>
<path stroke="#996335" vector-effect="non-scaling-stroke" d="
  M 334.50 303.04
  C 321.57 297.88 310.77 290.78 299.25 283.96"
/>
<path stroke="#f1c579" vector-effect="non-scaling-stroke" d="
  M 720.52 271.64
  L 674.04 264.36
  A 0.26 0.25 -28.0 0 0 673.89 264.84
  Q 699.13 276.37 725.09 286.18
  Q 725.76 286.43 725.60 285.74
  L 723.25 275.54"
/>
<path stroke="#9f846d" vector-effect="non-scaling-stroke" d="
  M 812.25 330.21
  Q 806.59 335.33 799.04 335.29"
/>
<path stroke="#f1c579" vector-effect="non-scaling-stroke" d="
  M 799.04 335.29
  Q 798.09 333.60 796.53 332.74
  C 789.08 328.65 781.75 322.02 775.23 316.38
  A 1.07 0.78 -46.3 0 0 773.97 316.61
  Q 773.73 316.86 773.75 317.46"
/>
<path stroke="#9f846d" vector-effect="non-scaling-stroke" d="
  M 773.75 317.46
  L 770.99 325.46"
/>
<path stroke="#f1c579" vector-effect="non-scaling-stroke" d="
  M 770.99 325.46
  Q 761.34 329.76 751.90 325.13
  Q 744.33 321.42 736.73 317.80
  C 717.72 308.75 698.99 312.07 679.50 320.04"
/>
<path stroke="#9f846d" vector-effect="non-scaling-stroke" d="
  M 679.50 320.04
  Q 669.31 317.00 660.07 311.71
  Q 659.44 311.35 659.75 312.01
  L 663.17 319.28"
/>
<path stroke="#f1c579" vector-effect="non-scaling-stroke" d="
  M 663.17 319.28
  Q 643.28 324.53 625.70 313.67
  Q 622.12 311.45 625.16 314.37
  C 638.86 327.55 653.96 334.72 673.20 335.66"
/>
<path stroke="#9f846d" vector-effect="non-scaling-stroke" d="
  M 673.20 335.66
  C 682.13 339.12 691.28 339.30 698.33 345.92
  C 710.77 357.59 722.37 370.45 739.77 371.03
  C 747.32 371.29 755.62 367.92 761.25 367.27
  C 771.90 366.05 781.25 370.95 790.03 377.07
  Q 790.90 377.68 790.26 376.83
  Q 784.40 369.09 777.21 362.41"
/>
<path stroke="#f1c579" vector-effect="non-scaling-stroke" d="
  M 777.21 362.41
  Q 779.79 362.53 781.33 364.73
  Q 782.43 366.32 781.80 364.50
  Q 781.43 363.45 780.69 362.60
  Q 780.38 362.24 780.44 361.77
  L 780.52 361.21
  Q 780.59 360.63 781.17 360.55
  C 787.99 359.59 801.61 360.21 805.54 354.00"
/>
<path stroke="#9f846d" vector-effect="non-scaling-stroke" d="
  M 805.54 354.00
  C 815.70 361.16 824.15 369.10 835.71 374.25"
/>
<path stroke="#9f846d" vector-effect="non-scaling-stroke" d="
  M 885.75 475.46
  C 882.63 482.21 875.15 490.24 867.00 489.79"
/>
<path stroke="#d6836d" vector-effect="non-scaling-stroke" d="
  M 867.00 489.79
  C 854.94 487.21 843.66 482.57 831.29 481.43
  Q 805.50 479.04 779.71 476.24
  A 1.10 1.07 -15.4 0 1 778.97 475.83
  C 753.81 443.30 715.53 434.87 682.91 417.64
  Q 662.20 406.70 643.00 393.21"
/>
<path stroke="#f1c579" vector-effect="non-scaling-stroke" d="
  M 643.00 393.21
  Q 642.68 392.45 642.31 392.17
  Q 627.69 381.22 614.17 368.90
  Q 612.51 367.39 614.04 369.04
  Q 625.78 381.74 638.89 393.03
  C 639.68 393.72 640.61 394.10 641.54 394.50"
/>
<path stroke="#d6836d" vector-effect="non-scaling-stroke" d="
  M 641.54 394.50
  Q 634.89 432.40 663.18 457.37
  C 671.04 464.31 680.19 471.44 686.48 478.70
  C 700.82 495.28 707.53 513.64 715.92 535.07
  Q 724.40 556.75 738.21 576.43
  C 746.86 588.77 756.91 596.11 772.02 593.77
  C 775.93 593.17 780.62 591.44 785.25 591.46
  C 791.90 591.49 798.10 593.78 804.50 595.29"
/>
<path stroke="#9f846d" vector-effect="non-scaling-stroke" d="
  M 804.50 595.29
  Q 806.27 601.11 805.96 607.29"
/>
<path stroke="#f1c579" vector-effect="non-scaling-stroke" d="
  M 805.96 607.29
  Q 790.98 615.52 773.74 615.78
  C 758.26 616.02 746.58 605.48 736.70 594.29
  Q 724.10 580.01 711.52 565.73
  C 687.16 538.07 661.35 512.96 622.00 510.53
  C 602.03 509.30 581.52 515.67 568.57 531.58
  C 565.64 535.17 562.39 540.99 558.01 545.90
  Q 557.64 546.31 558.15 546.54
  Q 558.71 546.78 559.04 547.25"
/>
<path stroke="#9f846d" vector-effect="non-scaling-stroke" d="
  M 559.04 547.25
  Q 551.46 556.02 546.96 566.67
  A 0.35 0.35 0.0 0 1 546.28 566.50
  C 549.53 533.33 561.92 506.34 593.18 491.44
  Q 599.87 488.25 610.50 484.71"
/>
<path stroke="#f1c579" vector-effect="non-scaling-stroke" d="
  M 610.50 484.71
  L 634.26 480.30
  Q 634.70 480.22 634.30 480.01
  C 604.81 464.08 570.04 448.78 535.75 450.49
  Q 519.47 451.30 505.89 460.10"
/>
<path stroke="#9f846d" vector-effect="non-scaling-stroke" d="
  M 505.89 460.10
  Q 485.04 469.04 464.95 479.79
  A 0.24 0.24 0.0 0 1 464.67 479.41
  C 484.25 461.26 504.63 444.54 528.04 431.50"
/>
<path stroke="#f1c579" vector-effect="non-scaling-stroke" d="
  M 528.04 431.50
  L 547.00 423.79"
/>
<path stroke="#9f846d" vector-effect="non-scaling-stroke" d="
  M 547.00 423.79
  Q 574.66 415.71 603.50 417.04"
/>
<path stroke="#f1c579" vector-effect="non-scaling-stroke" d="
  M 603.50 417.04
  Q 605.35 417.49 607.22 417.18
  Q 608.07 417.04 607.24 416.82
  Q 606.15 416.54 605.00 416.79"
/>
<path stroke="#9f846d" vector-effect="non-scaling-stroke" d="
  M 605.00 416.79
  Q 566.67 413.36 536.00 395.25
  Q 504.19 376.46 473.50 346.79"
/>
<path stroke="#f1c579" vector-effect="non-scaling-stroke" d="
  M 473.50 346.79
  L 482.50 340.04"
/>
<path stroke="#fbf3d8" vector-effect="non-scaling-stroke" d="
  M 482.50 340.04
  Q 492.63 347.63 503.93 353.28
  Q 504.46 353.55 504.41 352.96
  Q 503.81 345.91 506.79 339.50"
/>
<path stroke="#f1c579" vector-effect="non-scaling-stroke" d="
  M 506.79 339.50
  C 509.49 340.38 518.78 344.27 521.06 343.69
  C 523.09 343.17 523.83 339.25 524.29 337.25"
/>
<path stroke="#9f846d" vector-effect="non-scaling-stroke" d="
  M 524.29 337.25
  L 530.20 346.12
  A 2.52 2.49 78.4 0 0 531.79 347.18
  Q 549.89 350.92 568.25 352.21"
/>
<path stroke="#f1c579" vector-effect="non-scaling-stroke" d="
  M 568.25 352.21
  Q 584.40 353.57 600.27 350.00
  Q 601.16 349.79 600.29 349.51
  C 569.24 339.35 552.77 315.21 540.29 286.41
  Q 539.64 284.93 539.98 286.51
  Q 543.62 303.38 549.44 319.45"
/>
<path stroke="#9f846d" vector-effect="non-scaling-stroke" d="
  M 549.44 319.45
  C 529.61 323.10 511.32 318.09 493.72 308.73
  Q 492.67 308.17 493.59 308.93
  L 501.00 315.04"
/>
<path stroke="#f1c579" vector-effect="non-scaling-stroke" d="
  M 501.00 315.04
  Q 487.43 316.08 474.11 320.11"
/>
<path stroke="#fbf3d8" vector-effect="non-scaling-stroke" d="
  M 474.11 320.11
  Q 451.55 303.56 429.22 282.77
  Q 428.99 282.55 428.76 282.75
  Q 428.50 282.97 428.70 283.26
  L 433.46 289.75"
/>
<path stroke="#f1c579" vector-effect="non-scaling-stroke" d="
  M 433.46 289.75
  Q 435.83 295.45 440.69 303.31
  Q 449.44 317.47 457.70 327.55
  Q 460.45 330.89 461.73 335.73"
/>
<path stroke="#9f846d" vector-effect="non-scaling-stroke" d="
  M 461.73 335.73
  Q 457.62 333.15 454.11 330.37
  Q 433.64 314.12 412.93 298.12
  Q 412.37 297.69 412.82 298.23
  Q 444.94 336.84 482.00 370.71"
/>
<path stroke="#f1c579" vector-effect="non-scaling-stroke" d="
  M 482.00 370.71
  Q 481.25 371.42 480.41 370.90
  Q 480.03 370.67 479.59 370.72
  Q 474.10 371.33 468.64 370.43
  Q 467.91 370.31 468.29 370.94
  L 474.45 381.07
  A 0.79 0.79 0.0 0 1 473.90 382.27
  C 459.58 384.66 449.96 379.84 437.39 373.53
  C 434.59 372.13 429.38 369.96 427.59 367.45
  Q 425.94 365.14 422.27 357.26
  C 419.47 351.24 415.49 343.91 421.08 338.64
  Q 427.11 332.96 434.23 330.12
  A 0.54 0.54 0.0 0 0 433.99 329.08
  Q 420.16 330.19 407.95 336.68
  Q 407.35 337.00 408.02 337.10
  Q 413.52 337.98 418.42 340.65
  Q 418.93 340.93 418.66 341.44
  C 416.88 344.80 415.17 349.08 415.84 352.94
  C 416.33 355.76 421.61 371.49 425.20 373.26
  C 440.54 380.80 452.80 386.83 465.30 396.89
  Q 465.79 397.29 465.19 397.50
  Q 450.50 402.67 436.51 409.51
  A 1.22 1.18 -49.7 0 1 435.69 409.59
  Q 419.76 405.52 403.92 401.32
  C 398.98 400.01 396.64 398.79 393.91 394.83
  C 387.73 385.87 382.87 378.67 383.69 367.71
  Q 383.72 367.35 383.53 367.66
  C 378.21 376.72 377.98 391.08 387.42 397.80
  C 395.20 403.35 400.94 406.19 410.78 408.47
  Q 420.03 410.62 429.24 412.88
  Q 429.72 413.00 429.30 413.27
  Q 403.49 429.87 385.65 454.80
  A 2.07 2.05 -63.4 0 1 383.37 455.57
  C 376.61 453.45 358.56 448.82 355.46 442.30
  C 349.00 428.67 342.53 412.35 346.87 398.10
  C 349.76 388.61 358.76 380.56 366.86 375.24
  Q 367.24 374.99 366.83 374.78
  C 366.31 374.52 360.67 377.05 359.75 377.38
  Q 340.25 384.41 325.08 398.49
  Q 324.13 399.37 325.29 398.79
  Q 335.31 393.79 346.53 393.48
  A 0.59 0.59 0.0 0 1 346.86 394.57
  C 319.10 412.12 297.97 442.72 286.08 473.08
  C 260.64 538.00 265.95 615.21 295.39 677.82
  C 324.73 740.22 371.78 793.16 426.82 834.18
  Q 428.55 835.47 430.55 836.38
  Q 431.03 836.59 430.79 837.06
  Q 430.64 837.37 430.25 837.54"
/>
<path stroke="#9f846d" vector-effect="non-scaling-stroke" d="
  M 430.25 837.54
  Q 417.27 834.44 402.69 829.34
  C 339.88 807.36 279.42 767.95 240.00 713.72
  Q 239.64 713.22 239.47 713.82
  Q 237.28 721.63 236.70 729.75
  C 234.95 754.33 238.37 778.26 244.75 801.96"
/>
<path stroke="#9f846d" vector-effect="non-scaling-stroke" d="
  M 199.04 688.75
  Q 185.72 632.89 183.21 575.50"
/>
<path stroke="#9f846d" vector-effect="non-scaling-stroke" d="
  M 152.21 529.00
  Q 152.77 528.02 153.10 526.95
  Q 166.20 483.79 191.52 446.45
  A 0.20 0.20 0.0 0 0 191.31 446.14
  Q 180.15 449.01 169.40 453.59"
/>
<path stroke="#9f846d" vector-effect="non-scaling-stroke" d="
  M 211.32 388.07
  C 228.87 372.57 244.44 358.97 263.61 346.76
  A 0.37 0.36 -53.9 0 0 263.51 346.10
  Q 245.44 341.20 226.50 340.21"
/>
<path stroke="#9f846d" vector-effect="non-scaling-stroke" d="
  M 266.50 309.96
  C 275.26 310.28 284.85 310.16 292.74 310.73
  Q 305.06 311.61 317.32 313.53
  A 1.54 1.49 -55.9 0 0 318.37 313.31
  L 334.50 303.04"
/>
<path stroke="#f1c579" vector-effect="non-scaling-stroke" d="
  M 334.50 303.04
  L 356.94 291.36
  Q 357.22 291.22 356.99 291.01
  L 356.75 290.79"
/>
<path stroke="#fbf3d8" vector-effect="non-scaling-stroke" d="
  M 356.75 290.79
  Q 358.82 290.78 360.24 290.22
  Q 393.75 276.96 405.98 273.20
  C 412.31 271.25 418.29 268.54 422.38 267.97
  Q 422.93 267.90 422.95 267.34
  L 423.00 266.29"
/>
<path stroke="#9f846d" vector-effect="non-scaling-stroke" d="
  M 423.00 266.29
  Q 448.75 258.29 475.64 255.36
  A 0.19 0.19 0.0 0 0 475.69 254.99
  Q 426.81 234.16 374.25 224.46"
/>
<path stroke="#9f846d" vector-effect="non-scaling-stroke" d="
  M 372.29 222.00
  C 405.72 222.51 434.99 223.76 466.18 232.58
  C 507.81 244.34 537.34 270.46 563.90 303.71
  Q 565.71 305.98 568.01 307.23
  Q 582.03 314.87 597.99 317.17"
/>
<path stroke="#f1c579" vector-effect="non-scaling-stroke" d="
  M 597.99 317.17
  Q 605.77 318.09 613.44 317.70
  A 0.67 0.67 0.0 0 0 614.02 316.77
  C 605.29 295.66 591.71 279.05 575.25 263.54"
/>
<path stroke="#fbf3d8" vector-effect="non-scaling-stroke" d="
  M 575.25 263.54
  Q 576.73 263.12 577.34 262.34
  Q 587.53 249.18 599.32 237.31"
/>
<path stroke="#f1c579" vector-effect="non-scaling-stroke" d="
  M 599.32 237.31
  Q 630.61 258.59 657.71 285.36
  Q 658.83 286.48 659.97 285.38
  L 663.55 281.94
  Q 664.02 281.49 663.86 280.84
  Q 658.34 258.29 647.01 238.37"
/>
<path stroke="#eaa36a" vector-effect="non-scaling-stroke" d="
  M 647.01 238.37
  Q 644.04 232.24 640.24 226.75
  C 603.75 173.92 544.53 147.59 481.98 142.29
  Q 480.39 142.16 477.75 142.29"
/>
<path stroke="#9f846d" vector-effect="non-scaling-stroke" d="
  M 477.75 142.29
  L 455.51 140.90"
/>
<path stroke="#996335" vector-effect="non-scaling-stroke" d="
  M 597.99 317.17
  C 593.40 303.33 583.94 290.77 574.33 280.42
  Q 533.45 236.38 477.73 213.76
  Q 469.43 210.39 461.50 209.21"
/>
<path stroke="#f5d1a0" vector-effect="non-scaling-stroke" d="
  M 561.44 214.31
  Q 580.83 225.01 599.32 237.31"
/>
<path stroke="#f5d1a0" vector-effect="non-scaling-stroke" d="
  M 575.25 263.54
  Q 521.81 217.38 453.71 198.09
  C 405.72 184.50 355.62 179.84 305.90 179.95
  C 297.54 179.96 286.97 179.08 277.00 180.96"
/>
<path stroke="#914126" vector-effect="non-scaling-stroke" d="
  M 477.75 142.29
  Q 484.86 144.14 492.11 145.29
  C 529.94 151.31 564.46 169.69 589.55 198.70
  Q 598.83 209.43 604.25 221.21"
/>
<path stroke="#996335" vector-effect="non-scaling-stroke" d="
  M 604.25 221.21
  Q 583.33 215.18 561.44 214.31"
/>
<path stroke="#a39194" vector-effect="non-scaling-stroke" d="
  M 561.44 214.31
  Q 555.91 211.74 550.36 208.97
  C 492.09 179.95 426.36 166.22 361.50 165.21"
/>
<path stroke="#c83f26" vector-effect="non-scaling-stroke" d="
  M 718.50 669.79
  L 718.50 670.56
  Q 718.50 671.06 718.80 671.46
  L 722.31 676.00
  Q 722.65 676.44 723.21 676.49
  Q 725.35 676.68 725.81 678.73"
/>
<path stroke="#7d2128" vector-effect="non-scaling-stroke" d="
  M 867.00 489.79
  L 866.73 490.95
  Q 866.62 491.38 866.23 491.57
  Q 864.30 492.47 863.46 494.50"
/>
<path stroke="#d6836d" vector-effect="non-scaling-stroke" d="
  M 863.46 494.50
  L 850.50 494.04"
/>
<path stroke="#7d2128" vector-effect="non-scaling-stroke" d="
  M 850.50 494.04
  Q 846.80 492.72 843.79 495.00"
/>
<path stroke="#d6836d" vector-effect="non-scaling-stroke" d="
  M 843.79 495.00
  L 828.50 498.04"
/>
<path stroke="#7d2128" vector-effect="non-scaling-stroke" d="
  M 828.50 498.04
  Q 812.45 498.39 798.03 491.48
  C 797.52 491.23 797.10 491.28 796.56 491.15"
/>
<path stroke="#d6836d" vector-effect="non-scaling-stroke" d="
  M 796.56 491.15
  Q 793.79 487.52 788.26 486.24
  Q 780.19 484.38 777.25 484.04"
/>
<path stroke="#7d2128" vector-effect="non-scaling-stroke" d="
  M 777.25 484.04
  C 753.52 456.30 715.70 442.33 682.50 431.52
  C 670.20 427.51 656.96 420.79 651.80 408.63
  A 0.56 0.56 0.0 0 0 650.73 408.84
  C 650.64 419.15 653.05 428.00 658.66 436.89
  C 667.52 450.94 683.52 460.60 693.02 469.73
  Q 703.20 479.52 710.27 495.10
  Q 718.06 512.30 722.58 523.18
  C 726.38 532.36 736.58 528.53 744.46 530.00
  Q 761.54 533.18 772.60 547.68
  Q 782.55 560.71 788.79 572.93"
/>
<path stroke="#d6836d" vector-effect="non-scaling-stroke" d="
  M 788.79 572.93
  L 779.61 578.89
  Q 779.06 579.24 779.61 579.61
  L 789.58 586.19"
/>
<path stroke="#d06135" vector-effect="non-scaling-stroke" d="
  M 789.58 586.19
  Q 796.28 590.44 800.50 583.51"
/>
<path stroke="#d6836d" vector-effect="non-scaling-stroke" d="
  M 800.50 583.51
  L 806.00 593.54"
/>
<path stroke="#7d2128" vector-effect="non-scaling-stroke" d="
  M 806.00 593.54
  L 804.50 595.29"
/>
<path stroke="#f1c579" vector-effect="non-scaling-stroke" d="
  M 800.50 583.51
  L 801.79 581.25"
/>
<path stroke="#996335" vector-effect="non-scaling-stroke" d="
  M 528.04 431.50
  C 479.83 423.72 429.15 444.08 404.84 487.60
  C 389.59 514.92 386.63 545.24 391.46 576.00"
/>
<path stroke="#f1c579" vector-effect="non-scaling-stroke" d="
  M 391.46 576.00
  Q 382.18 573.52 373.19 576.04
  C 369.28 577.14 366.35 576.50 362.64 575.67
  Q 362.07 575.55 361.98 574.97
  L 358.77 554.93
  Q 358.68 554.36 358.18 554.63
  Q 344.56 561.83 330.81 567.96
  C 328.57 568.96 326.79 568.94 324.49 568.58
  Q 312.28 566.69 300.25 565.32
  A 1.63 1.61 79.1 0 1 299.02 564.48
  L 286.38 540.82
  A 0.03 0.03 0.0 0 0 286.33 540.83
  Q 285.73 559.51 288.16 578.06
  C 290.41 595.18 294.30 611.17 311.24 618.74
  C 313.56 619.78 325.14 625.14 327.00 624.27
  Q 333.18 621.36 351.76 612.02
  C 359.87 607.94 363.94 606.43 367.72 599.83
  A 0.40 0.40 0.0 0 1 368.38 599.76
  C 376.93 609.55 387.85 610.00 399.08 604.73
  Q 399.22 604.67 399.25 604.51
  Q 399.27 604.40 399.29 604.25"
/>
<path stroke="#996335" vector-effect="non-scaling-stroke" d="
  M 399.29 604.25
  L 400.96 608.50"
/>
<path stroke="#f1c579" vector-effect="non-scaling-stroke" d="
  M 400.96 608.50
  C 391.01 612.86 379.93 615.86 371.83 607.03
  A 0.95 0.94 50.2 0 0 370.57 606.91
  Q 352.67 620.38 333.78 632.45
  Q 333.30 632.76 332.73 632.68
  L 302.71 628.42
  Q 302.21 628.35 302.39 628.82
  C 311.11 651.39 325.78 674.50 348.56 685.44
  Q 349.04 685.67 349.49 685.38
  Q 366.68 674.18 381.77 660.27
  C 385.22 657.10 387.98 645.83 388.47 643.22
  Q 389.27 638.90 385.94 635.05
  Q 382.65 631.24 386.28 634.72
  Q 390.56 638.81 394.63 643.11
  Q 395.01 643.52 394.82 644.05
  C 392.39 650.83 389.85 659.04 385.03 664.51
  Q 378.05 672.40 370.80 680.05
  C 365.80 685.32 355.64 688.52 348.92 691.42
  A 0.33 0.33 0.0 0 0 348.81 691.95
  C 360.86 704.59 373.90 714.89 390.50 722.37
  C 395.15 724.46 399.44 724.56 404.30 724.04
  Q 404.78 723.99 405.10 723.64
  C 413.33 714.54 414.99 705.72 416.56 693.41
  C 417.85 683.22 416.89 675.16 413.52 665.96
  Q 413.29 665.33 413.80 665.77
  Q 422.94 673.62 432.27 681.24
  Q 434.70 683.22 437.40 684.74
  Q 437.79 684.96 437.94 684.53
  Q 438.74 682.12 440.27 680.07
  Q 440.74 679.45 440.76 680.22
  Q 440.90 685.22 439.46 690.02
  Q 439.25 690.72 438.61 690.37
  L 426.32 683.63
  A 0.61 0.61 0.0 0 0 425.43 684.23
  Q 426.95 698.50 426.93 713.15
  C 426.92 719.88 414.26 732.23 409.79 736.63
  Q 409.42 737.00 409.86 737.28
  C 415.82 741.24 422.95 744.75 430.23 744.95
  C 432.91 745.03 439.60 745.88 441.22 743.32
  C 444.17 738.65 447.77 733.31 448.94 728.20
  C 450.28 722.32 448.46 716.61 447.53 711.02
  Q 447.17 708.84 448.01 710.88
  Q 451.05 718.27 453.54 725.87
  C 454.84 729.84 446.72 746.04 444.63 750.34
  Q 444.42 750.78 444.74 751.14
  C 464.29 773.00 495.23 786.64 523.43 792.64
  C 595.59 808.00 669.01 785.23 722.29 735.31
  Q 726.40 731.46 728.77 729.76"
/>
<path stroke="#996335" vector-effect="non-scaling-stroke" d="
  M 728.77 729.76
  C 704.27 782.09 652.97 816.59 599.24 832.97
  Q 515.45 858.51 430.25 837.54"
/>
<path stroke="#f1c579" vector-effect="non-scaling-stroke" d="
  M 805.46 569.75
  L 804.25 569.75
  Q 803.74 569.75 803.51 570.20
  Q 798.48 579.83 789.58 586.19"
/>
<path stroke="#eaa36a" vector-effect="non-scaling-stroke" d="
  M 672.79 648.25
  Q 665.62 667.80 654.29 685.25"
/>
<path stroke="#eaa36a" vector-effect="non-scaling-stroke" d="
  M 703.25 694.21
  Q 715.20 687.52 725.81 678.73"
/>
<path stroke="#d6836d" vector-effect="non-scaling-stroke" d="
  M 725.81 678.73
  L 728.25 676.79"
/>
<path stroke="#eaa36a" vector-effect="non-scaling-stroke" d="
  M 651.25 640.29
  C 650.92 640.67 650.77 641.07 650.40 641.38
  C 617.77 668.63 580.98 686.88 538.75 693.42
  C 518.56 696.55 495.95 696.32 478.21 686.25"
/>
<path stroke="#996335" vector-effect="non-scaling-stroke" d="
  M 524.29 337.25
  Q 522.79 334.90 521.69 333.81
  Q 511.71 324.02 501.00 315.04"
/>
<path stroke="#996335" vector-effect="non-scaling-stroke" d="
  M 605.00 416.79
  L 603.50 417.04"
/>
<path stroke="#996335" vector-effect="non-scaling-stroke" d="
  M 547.00 423.79
  Q 514.16 397.66 482.00 370.71"
/>
<path stroke="#f5d1a0" vector-effect="non-scaling-stroke" d="
  M 474.11 320.11
  Q 489.70 331.10 506.79 339.50"
/>
<path stroke="#f5d1a0" vector-effect="non-scaling-stroke" d="
  M 482.50 340.04
  C 464.58 324.34 450.46 308.68 433.46 289.75"
/>
<path stroke="#e48132" vector-effect="non-scaling-stroke" d="
  M 647.01 238.37
  Q 635.69 232.48 625.17 228.35
  Q 615.67 224.61 604.25 221.21"
/>
<path stroke="#996335" vector-effect="non-scaling-stroke" d="
  M 473.50 346.79
  L 461.73 335.73"
/>
<path stroke="#996335" vector-effect="non-scaling-stroke" d="
  M 568.25 352.21
  L 568.41 351.96
  Q 568.55 351.75 568.39 351.55
  Q 557.04 336.67 549.44 319.45"
/>
<path stroke="#d06135" vector-effect="non-scaling-stroke" d="
  M 643.00 393.21
  L 641.54 394.50"
/>
<path stroke="#f1c579" vector-effect="non-scaling-stroke" d="
  M 740.61 282.19
  Q 755.55 294.68 770.40 305.61
  Q 771.99 306.79 773.84 307.79
  Q 774.42 308.11 774.38 307.44
  L 773.21 287.11
  Q 773.14 285.93 771.97 286.01
  Q 755.98 287.15 741.06 281.43
  A 0.45 0.45 0.0 0 0 740.61 282.19"
/>
<path stroke="#f1c579" vector-effect="non-scaling-stroke" d="
  M 371.30 361.54
  C 376.21 361.25 380.43 361.81 385.21 362.48
  Q 385.74 362.56 386.13 362.18
  Q 394.01 354.65 404.32 351.07
  Q 405.43 350.69 404.26 350.84
  Q 386.82 353.14 371.20 361.18
  Q 370.38 361.60 371.30 361.54"
/>
<path stroke="#f1c579" vector-effect="non-scaling-stroke" d="
  M 793.94 367.81
  Q 805.14 377.38 819.89 385.36
  A 0.45 0.45 0.0 0 0 820.39 384.61
  Q 806.64 373.65 791.43 364.78
  Q 790.67 364.34 791.19 365.04
  Q 792.06 366.21 793.94 367.81"
/>
<path stroke="#f1c579" vector-effect="non-scaling-stroke" d="
  M 735.66 409.14
  Q 754.12 411.63 772.54 414.52
  C 792.03 417.58 808.79 424.39 818.83 442.35
  Q 819.14 442.91 819.14 442.27
  C 819.03 419.07 805.60 410.18 784.06 408.92
  C 772.54 408.24 761.49 408.39 749.47 408.38
  Q 742.79 408.37 735.68 408.65
  Q 732.91 408.77 735.66 409.14"
/>
<path stroke="#9f846d" vector-effect="non-scaling-stroke" d="
  M 835.93 425.06
  C 838.42 427.00 843.96 427.13 847.13 427.73
  C 850.77 428.42 853.06 430.07 855.11 432.91
  C 856.83 435.28 859.27 439.46 862.79 438.52
  C 867.75 437.20 869.07 431.03 867.99 426.51
  Q 865.83 417.40 857.44 413.36
  C 850.99 410.25 838.98 408.84 834.42 416.17
  Q 831.19 421.38 835.93 425.06"
/>
<path stroke="#9f846d" vector-effect="non-scaling-stroke" d="
  M 706.50 338.96
  L 703.94 340.04
  Q 703.46 340.24 703.84 340.61
  C 715.40 351.71 726.76 365.69 744.57 362.53
  Q 745.15 362.43 744.75 362.00
  Q 737.95 354.64 739.25 344.54"
/>
<path stroke="#996335" vector-effect="non-scaling-stroke" d="
  M 739.25 344.54
  L 742.07 338.26
  Q 742.29 337.79 741.80 337.61
  C 729.43 333.13 718.51 331.82 706.50 338.96"
/>
<path stroke="#f1c579" vector-effect="non-scaling-stroke" d="
  M 739.25 344.54
  Q 726.13 338.37 711.59 339.18
  C 709.84 339.28 708.46 340.22 706.50 338.96"
/>
<path stroke="#7d2128" vector-effect="non-scaling-stroke" d="
  M 748.69 359.06
  C 756.99 366.25 764.25 343.72 746.97 340.02
  Q 746.48 339.91 746.10 340.25
  C 740.63 345.09 744.29 355.26 748.69 359.06"
/>
<path stroke="#f1c579" vector-effect="non-scaling-stroke" d="
  M 324.19 505.06
  C 327.55 506.74 334.83 509.84 338.93 508.70
  Q 351.74 505.15 364.05 499.77
  Q 364.58 499.54 364.74 498.99
  Q 369.84 481.87 378.46 466.23
  Q 378.70 465.80 378.21 465.77
  Q 363.38 464.84 349.64 459.25
  Q 349.13 459.04 348.82 458.59
  Q 335.19 438.83 332.33 414.99
  A 1.05 1.05 0.0 0 0 330.54 414.38
  C 320.21 424.80 303.91 446.48 303.76 461.82
  C 303.63 475.35 312.98 489.94 321.60 502.05
  C 322.25 502.96 323.07 504.51 324.19 505.06"
/>
<path stroke="#f1c579" vector-effect="non-scaling-stroke" d="
  M 307.53 556.20
  C 310.81 558.91 318.51 560.81 326.46 562.86
  C 329.66 563.68 330.65 562.49 333.31 561.06
  Q 344.88 554.81 356.36 548.40
  C 357.51 547.76 358.27 546.95 358.24 545.50
  Q 357.94 530.84 360.20 516.22
  Q 360.31 515.48 359.67 515.88
  C 355.53 518.41 351.71 520.05 346.60 519.59
  Q 332.34 518.30 317.93 517.40
  Q 317.41 517.37 317.18 516.92
  Q 308.28 499.86 300.48 482.26
  Q 299.34 479.67 298.61 477.21
  A 0.53 0.52 -40.8 0 0 297.63 477.14
  C 290.02 493.48 287.11 510.91 287.03 528.73
  C 287.00 536.65 301.61 551.29 307.53 556.20"
/>
<path stroke="#d06135" vector-effect="non-scaling-stroke" d="
  M 750.75 581.79
  C 757.42 587.62 760.58 581.09 762.11 575.78
  Q 764.66 566.95 763.28 557.67"
/>
<path stroke="#d6836d" vector-effect="non-scaling-stroke" d="
  M 763.28 557.67
  Q 763.55 552.45 762.27 546.88
  A 0.44 0.44 0.0 0 0 761.45 546.77
  Q 753.87 561.15 740.00 569.72
  Q 739.58 569.98 739.86 570.40
  Q 744.36 577.09 750.75 581.79"
/>
<path stroke="#f1c579" vector-effect="non-scaling-stroke" d="
  M 763.28 557.67
  Q 759.90 571.28 750.75 581.79"
/>
</g>
<path fill="#ffffff" d="
  M 0.00 0.00
  L 1024.00 0.00
  L 1024.00 1024.00
  L 0.00 1024.00
  L 0.00 0.00
  Z
  M 494.50 1018.21
  C 590.39 1021.46 689.69 997.82 771.25 946.29
  C 882.94 877.58 968.00 763.88 999.65 636.25
  C 1014.54 576.22 1017.97 513.59 1011.41 452.18
  C 986.96 222.96 804.55 38.46 576.78 9.74
  C 439.14 -7.62 299.60 32.47 192.19 120.49
  C 55.38 232.62 -9.83 405.37 13.36 580.19
  C 27.34 685.62 74.49 782.58 147.06 860.19
  C 237.20 956.58 359.72 1012.68 491.73 1018.56
  Q 492.62 1018.60 494.50 1018.21
  Z"
/>
<path fill="#dc5f23" d="
  M 771.25 946.29
  Q 734.62 946.89 699.43 936.72
  Q 697.91 936.28 699.46 935.98
  C 757.72 924.67 809.17 893.55 831.80 836.26
  Q 832.07 835.57 831.45 835.99
  C 809.27 851.04 787.71 860.67 760.42 861.61
  Q 758.77 861.66 760.08 860.66
  C 791.37 836.61 810.30 796.76 812.81 757.57
  Q 812.88 756.53 812.22 757.33
  C 789.87 784.41 759.77 798.30 724.42 796.03
  A 0.30 0.30 0.0 0 1 724.25 795.49
  Q 759.45 768.71 773.68 726.75
  Q 773.89 726.14 774.39 726.53
  C 787.68 736.82 799.32 742.17 813.07 748.68
  C 825.74 754.68 833.13 764.60 841.02 775.96
  C 851.57 791.13 869.27 802.23 888.33 797.10
  Q 900.51 793.82 908.06 785.32
  Q 915.61 776.81 929.17 758.42
  C 942.66 740.10 945.52 721.60 929.36 703.12
  C 922.77 695.58 916.00 688.64 910.37 679.74
  C 900.98 664.89 893.81 646.96 887.68 630.52
  A 0.29 0.29 0.0 0 1 888.17 630.22
  Q 894.34 636.88 901.66 642.09
  C 912.84 650.04 930.74 653.50 941.17 642.33
  C 945.05 638.18 948.25 631.09 951.44 625.48
  C 956.16 617.18 962.96 608.60 968.00 599.54
  C 977.53 582.42 970.89 564.36 956.74 552.51
  Q 950.50 547.29 944.43 541.15
  C 935.69 532.29 926.30 518.96 919.77 510.97
  Q 904.35 492.08 886.32 475.65
  C 886.08 475.42 886.08 475.51 885.75 475.46
  C 889.66 466.09 891.46 457.43 894.03 448.18
  C 896.16 440.53 900.14 437.29 904.94 431.94
  C 920.66 414.43 907.15 391.89 885.46 391.32
  C 882.20 391.23 879.49 391.95 876.36 390.75
  Q 856.26 383.09 836.37 374.95
  Q 836.11 374.84 835.95 374.61
  L 835.71 374.25
  C 834.58 369.84 833.47 363.78 829.69 360.81
  C 822.63 355.24 817.21 351.06 813.66 342.43
  C 812.27 339.05 812.54 334.98 812.68 331.33
  Q 812.69 330.92 812.25 330.21
  L 825.63 314.40
  Q 826.09 313.86 825.41 314.07
  C 820.85 315.44 810.73 318.10 806.95 314.31
  C 795.78 303.10 785.17 291.65 773.14 283.83
  Q 772.70 283.55 772.65 283.04
  C 770.66 265.84 766.93 248.92 759.48 233.01
  C 748.62 209.81 725.51 196.20 701.09 191.07
  A 0.25 0.25 0.0 0 0 700.96 191.55
  C 739.89 203.93 745.46 244.76 739.97 279.31
  Q 739.89 279.84 739.36 279.71
  L 723.25 275.54
  L 720.52 271.64
  C 696.32 209.47 640.07 158.65 576.50 139.26
  Q 546.78 130.20 515.74 128.38
  C 485.28 126.59 454.35 126.02 424.07 122.46
  C 396.70 119.24 384.42 105.54 395.70 77.78
  Q 396.49 75.83 395.46 77.66
  Q 388.84 89.50 388.99 103.02
  C 389.18 120.38 412.71 131.44 426.75 135.02
  Q 439.02 138.15 455.51 140.90
  Q 433.52 141.71 411.79 145.06
  Q 410.75 145.22 411.80 145.24
  C 441.61 145.79 466.91 152.20 490.25 171.61
  A 0.53 0.53 0.0 0 1 489.80 172.53
  C 447.62 163.71 404.93 158.95 362.00 164.52
  Q 361.52 164.58 361.50 165.21
  C 307.46 165.07 254.97 171.63 203.56 188.54
  Q 201.75 189.13 200.62 189.61
  Q 199.17 190.21 200.71 189.89
  Q 238.43 181.87 277.00 180.96
  C 340.64 181.02 401.76 188.14 460.98 207.51
  Q 461.35 207.63 461.26 208.01
  Q 461.12 208.58 461.50 209.21
  C 447.33 207.22 433.71 205.03 419.00 204.00
  Q 349.25 199.10 279.01 212.70
  Q 276.79 213.13 279.04 213.26
  Q 303.07 214.67 328.31 216.43
  C 342.78 217.43 358.24 218.27 372.29 222.00
  Q 372.72 223.60 374.25 224.46
  Q 363.83 228.00 353.84 232.62
  Q 330.09 243.63 306.39 254.95
  Q 297.86 253.54 287.98 248.03
  Q 259.77 232.29 235.41 211.41
  A 0.15 0.15 0.0 0 0 235.18 211.61
  C 242.04 221.95 249.40 233.17 257.80 242.05
  Q 259.43 243.77 260.67 245.81
  Q 277.54 267.31 299.25 283.96
  C 279.30 297.03 254.98 287.43 237.68 274.43
  A 0.19 0.19 0.0 0 0 237.41 274.68
  C 245.53 287.50 254.71 300.21 266.50 309.96
  Q 259.03 310.66 251.60 311.32
  Q 195.14 316.30 147.51 346.13
  A 0.26 0.25 21.9 0 0 147.71 346.59
  Q 186.75 337.35 226.50 340.21
  L 226.09 340.23
  Q 225.61 340.27 225.20 340.51
  C 220.43 343.38 215.64 344.90 209.49 348.42
  C 182.81 363.65 160.54 387.17 145.25 413.77
  Q 144.56 414.98 145.64 414.10
  C 156.55 405.27 168.67 398.31 183.57 393.58
  Q 196.22 389.57 211.32 388.07
  C 210.80 388.82 210.16 389.68 209.32 390.09
  C 164.42 411.99 130.51 450.61 109.04 494.86
  A 0.13 0.13 0.0 0 0 109.25 495.00
  Q 134.83 467.80 169.40 453.59
  L 169.54 454.61
  Q 169.61 455.13 169.25 455.50
  C 139.09 486.84 125.26 528.93 125.64 571.68
  A 0.17 0.17 0.0 0 0 125.97 571.72
  Q 131.95 546.37 151.35 529.20
  Q 151.58 529.00 151.88 529.00
  L 152.21 529.00
  Q 152.31 529.52 152.24 529.75
  Q 137.80 578.80 140.80 630.02
  A 0.18 0.18 0.0 0 0 141.16 630.03
  C 145.92 599.03 159.91 565.12 183.68 543.78
  Q 184.12 543.39 184.08 543.98
  Q 182.98 559.82 183.21 575.50
  C 182.73 578.65 182.87 581.67 181.63 584.63
  C 179.63 589.40 177.34 594.32 175.77 598.97
  C 158.51 650.08 163.15 707.56 177.24 758.58
  Q 177.51 759.55 177.74 758.57
  C 183.33 734.54 189.35 711.52 199.04 688.75
  Q 199.47 689.25 199.78 690.49
  Q 214.22 748.77 244.38 801.94
  Q 244.44 802.05 244.75 801.96
  Q 268.05 880.21 325.83 937.71
  A 0.11 0.11 0.0 0 0 326.01 937.57
  Q 308.60 909.07 298.46 877.31
  Q 295.45 867.89 292.55 858.16
  A 0.25 0.24 -66.3 0 1 293.00 857.98
  Q 312.05 899.00 340.89 934.10
  C 344.71 938.74 352.72 944.28 356.74 947.56
  Q 404.51 986.59 462.58 1007.87
  Q 467.17 1009.55 481.92 1014.67
  C 485.67 1015.98 490.35 1016.60 494.50 1018.21
  Q 492.62 1018.60 491.73 1018.56
  C 359.72 1012.68 237.20 956.58 147.06 860.19
  C 74.49 782.58 27.34 685.62 13.36 580.19
  C -9.83 405.37 55.38 232.62 192.19 120.49
  C 299.60 32.47 439.14 -7.62 576.78 9.74
  C 804.55 38.46 986.96 222.96 1011.41 452.18
  C 1017.97 513.59 1014.54 576.22 999.65 636.25
  C 968.00 763.88 882.94 877.58 771.25 946.29
  Z"
/>
<path fill="#f7e6b1" d="
  M 720.52 271.64
  L 674.04 264.36
  A 0.26 0.25 -28.0 0 0 673.89 264.84
  Q 699.13 276.37 725.09 286.18
  Q 725.76 286.43 725.60 285.74
  L 723.25 275.54
  L 739.36 279.71
  Q 739.89 279.84 739.97 279.31
  C 745.46 244.76 739.89 203.93 700.96 191.55
  A 0.25 0.25 0.0 0 1 701.09 191.07
  C 725.51 196.20 748.62 209.81 759.48 233.01
  C 766.93 248.92 770.66 265.84 772.65 283.04
  Q 772.70 283.55 773.14 283.83
  C 785.17 291.65 795.78 303.10 806.95 314.31
  C 810.73 318.10 820.85 315.44 825.41 314.07
  Q 826.09 313.86 825.63 314.40
  L 812.25 330.21
  Q 806.59 335.33 799.04 335.29
  Q 798.09 333.60 796.53 332.74
  C 789.08 328.65 781.75 322.02 775.23 316.38
  A 1.07 0.78 -46.3 0 0 773.97 316.61
  Q 773.73 316.86 773.75 317.46
  L 770.99 325.46
  Q 761.34 329.76 751.90 325.13
  Q 744.33 321.42 736.73 317.80
  C 717.72 308.75 698.99 312.07 679.50 320.04
  Q 669.31 317.00 660.07 311.71
  Q 659.44 311.35 659.75 312.01
  L 663.17 319.28
  Q 643.28 324.53 625.70 313.67
  Q 622.12 311.45 625.16 314.37
  C 638.86 327.55 653.96 334.72 673.20 335.66
  C 682.13 339.12 691.28 339.30 698.33 345.92
  C 710.77 357.59 722.37 370.45 739.77 371.03
  C 747.32 371.29 755.62 367.92 761.25 367.27
  C 771.90 366.05 781.25 370.95 790.03 377.07
  Q 790.90 377.68 790.26 376.83
  Q 784.40 369.09 777.21 362.41
  Q 779.79 362.53 781.33 364.73
  Q 782.43 366.32 781.80 364.50
  Q 781.43 363.45 780.69 362.60
  Q 780.38 362.24 780.44 361.77
  L 780.52 361.21
  Q 780.59 360.63 781.17 360.55
  C 787.99 359.59 801.61 360.21 805.54 354.00
  C 815.70 361.16 824.15 369.10 835.71 374.25
  L 835.95 374.61
  Q 836.11 374.84 836.37 374.95
  Q 856.26 383.09 876.36 390.75
  C 879.49 391.95 882.20 391.23 885.46 391.32
  C 907.15 391.89 920.66 414.43 904.94 431.94
  C 900.14 437.29 896.16 440.53 894.03 448.18
  C 891.46 457.43 889.66 466.09 885.75 475.46
  C 882.63 482.21 875.15 490.24 867.00 489.79
  C 854.94 487.21 843.66 482.57 831.29 481.43
  Q 805.50 479.04 779.71 476.24
  A 1.10 1.07 -15.4 0 1 778.97 475.83
  C 753.81 443.30 715.53 434.87 682.91 417.64
  Q 662.20 406.70 643.00 393.21
  Q 642.68 392.45 642.31 392.17
  Q 627.69 381.22 614.17 368.90
  Q 612.51 367.39 614.04 369.04
  Q 625.78 381.74 638.89 393.03
  C 639.68 393.72 640.61 394.10 641.54 394.50
  Q 634.89 432.40 663.18 457.37
  C 671.04 464.31 680.19 471.44 686.48 478.70
  C 700.82 495.28 707.53 513.64 715.92 535.07
  Q 724.40 556.75 738.21 576.43
  C 746.86 588.77 756.91 596.11 772.02 593.77
  C 775.93 593.17 780.62 591.44 785.25 591.46
  C 791.90 591.49 798.10 593.78 804.50 595.29
  Q 806.27 601.11 805.96 607.29
  Q 790.98 615.52 773.74 615.78
  C 758.26 616.02 746.58 605.48 736.70 594.29
  Q 724.10 580.01 711.52 565.73
  C 687.16 538.07 661.35 512.96 622.00 510.53
  C 602.03 509.30 581.52 515.67 568.57 531.58
  C 565.64 535.17 562.39 540.99 558.01 545.90
  Q 557.64 546.31 558.15 546.54
  Q 558.71 546.78 559.04 547.25
  Q 551.46 556.02 546.96 566.67
  A 0.35 0.35 0.0 0 1 546.28 566.50
  C 549.53 533.33 561.92 506.34 593.18 491.44
  Q 599.87 488.25 610.50 484.71
  L 634.26 480.30
  Q 634.70 480.22 634.30 480.01
  C 604.81 464.08 570.04 448.78 535.75 450.49
  Q 519.47 451.30 505.89 460.10
  Q 485.04 469.04 464.95 479.79
  A 0.24 0.24 0.0 0 1 464.67 479.41
  C 484.25 461.26 504.63 444.54 528.04 431.50
  L 547.00 423.79
  Q 574.66 415.71 603.50 417.04
  Q 605.35 417.49 607.22 417.18
  Q 608.07 417.04 607.24 416.82
  Q 606.15 416.54 605.00 416.79
  Q 566.67 413.36 536.00 395.25
  Q 504.19 376.46 473.50 346.79
  L 482.50 340.04
  Q 492.63 347.63 503.93 353.28
  Q 504.46 353.55 504.41 352.96
  Q 503.81 345.91 506.79 339.50
  C 509.49 340.38 518.78 344.27 521.06 343.69
  C 523.09 343.17 523.83 339.25 524.29 337.25
  L 530.20 346.12
  A 2.52 2.49 78.4 0 0 531.79 347.18
  Q 549.89 350.92 568.25 352.21
  Q 584.40 353.57 600.27 350.00
  Q 601.16 349.79 600.29 349.51
  C 569.24 339.35 552.77 315.21 540.29 286.41
  Q 539.64 284.93 539.98 286.51
  Q 543.62 303.38 549.44 319.45
  C 529.61 323.10 511.32 318.09 493.72 308.73
  Q 492.67 308.17 493.59 308.93
  L 501.00 315.04
  Q 487.43 316.08 474.11 320.11
  Q 451.55 303.56 429.22 282.77
  Q 428.99 282.55 428.76 282.75
  Q 428.50 282.97 428.70 283.26
  L 433.46 289.75
  Q 435.83 295.45 440.69 303.31
  Q 449.44 317.47 457.70 327.55
  Q 460.45 330.89 461.73 335.73
  Q 457.62 333.15 454.11 330.37
  Q 433.64 314.12 412.93 298.12
  Q 412.37 297.69 412.82 298.23
  Q 444.94 336.84 482.00 370.71
  Q 481.25 371.42 480.41 370.90
  Q 480.03 370.67 479.59 370.72
  Q 474.10 371.33 468.64 370.43
  Q 467.91 370.31 468.29 370.94
  L 474.45 381.07
  A 0.79 0.79 0.0 0 1 473.90 382.27
  C 459.58 384.66 449.96 379.84 437.39 373.53
  C 434.59 372.13 429.38 369.96 427.59 367.45
  Q 425.94 365.14 422.27 357.26
  C 419.47 351.24 415.49 343.91 421.08 338.64
  Q 427.11 332.96 434.23 330.12
  A 0.54 0.54 0.0 0 0 433.99 329.08
  Q 420.16 330.19 407.95 336.68
  Q 407.35 337.00 408.02 337.10
  Q 413.52 337.98 418.42 340.65
  Q 418.93 340.93 418.66 341.44
  C 416.88 344.80 415.17 349.08 415.84 352.94
  C 416.33 355.76 421.61 371.49 425.20 373.26
  C 440.54 380.80 452.80 386.83 465.30 396.89
  Q 465.79 397.29 465.19 397.50
  Q 450.50 402.67 436.51 409.51
  A 1.22 1.18 -49.7 0 1 435.69 409.59
  Q 419.76 405.52 403.92 401.32
  C 398.98 400.01 396.64 398.79 393.91 394.83
  C 387.73 385.87 382.87 378.67 383.69 367.71
  Q 383.72 367.35 383.53 367.66
  C 378.21 376.72 377.98 391.08 387.42 397.80
  C 395.20 403.35 400.94 406.19 410.78 408.47
  Q 420.03 410.62 429.24 412.88
  Q 429.72 413.00 429.30 413.27
  Q 403.49 429.87 385.65 454.80
  A 2.07 2.05 -63.4 0 1 383.37 455.57
  C 376.61 453.45 358.56 448.82 355.46 442.30
  C 349.00 428.67 342.53 412.35 346.87 398.10
  C 349.76 388.61 358.76 380.56 366.86 375.24
  Q 367.24 374.99 366.83 374.78
  C 366.31 374.52 360.67 377.05 359.75 377.38
  Q 340.25 384.41 325.08 398.49
  Q 324.13 399.37 325.29 398.79
  Q 335.31 393.79 346.53 393.48
  A 0.59 0.59 0.0 0 1 346.86 394.57
  C 319.10 412.12 297.97 442.72 286.08 473.08
  C 260.64 538.00 265.95 615.21 295.39 677.82
  C 324.73 740.22 371.78 793.16 426.82 834.18
  Q 428.55 835.47 430.55 836.38
  Q 431.03 836.59 430.79 837.06
  Q 430.64 837.37 430.25 837.54
  Q 417.27 834.44 402.69 829.34
  C 339.88 807.36 279.42 767.95 240.00 713.72
  Q 239.64 713.22 239.47 713.82
  Q 237.28 721.63 236.70 729.75
  C 234.95 754.33 238.37 778.26 244.75 801.96
  Q 244.44 802.05 244.38 801.94
  Q 214.22 748.77 199.78 690.49
  Q 199.47 689.25 199.04 688.75
  Q 185.72 632.89 183.21 575.50
  Q 182.98 559.82 184.08 543.98
  Q 184.12 543.39 183.68 543.78
  C 159.91 565.12 145.92 599.03 141.16 630.03
  A 0.18 0.18 0.0 0 1 140.80 630.02
  Q 137.80 578.80 152.24 529.75
  Q 152.31 529.52 152.21 529.00
  Q 152.77 528.02 153.10 526.95
  Q 166.20 483.79 191.52 446.45
  A 0.20 0.20 0.0 0 0 191.31 446.14
  Q 180.15 449.01 169.40 453.59
  Q 134.83 467.80 109.25 495.00
  A 0.13 0.13 0.0 0 1 109.04 494.86
  C 130.51 450.61 164.42 411.99 209.32 390.09
  C 210.16 389.68 210.80 388.82 211.32 388.07
  C 228.87 372.57 244.44 358.97 263.61 346.76
  A 0.37 0.36 -53.9 0 0 263.51 346.10
  Q 245.44 341.20 226.50 340.21
  Q 186.75 337.35 147.71 346.59
  A 0.26 0.25 21.9 0 1 147.51 346.13
  Q 195.14 316.30 251.60 311.32
  Q 259.03 310.66 266.50 309.96
  C 275.26 310.28 284.85 310.16 292.74 310.73
  Q 305.06 311.61 317.32 313.53
  A 1.54 1.49 -55.9 0 0 318.37 313.31
  L 334.50 303.04
  L 356.94 291.36
  Q 357.22 291.22 356.99 291.01
  L 356.75 290.79
  Q 358.82 290.78 360.24 290.22
  Q 393.75 276.96 405.98 273.20
  C 412.31 271.25 418.29 268.54 422.38 267.97
  Q 422.93 267.90 422.95 267.34
  L 423.00 266.29
  Q 448.75 258.29 475.64 255.36
  A 0.19 0.19 0.0 0 0 475.69 254.99
  Q 426.81 234.16 374.25 224.46
  Q 372.72 223.60 372.29 222.00
  C 405.72 222.51 434.99 223.76 466.18 232.58
  C 507.81 244.34 537.34 270.46 563.90 303.71
  Q 565.71 305.98 568.01 307.23
  Q 582.03 314.87 597.99 317.17
  Q 605.77 318.09 613.44 317.70
  A 0.67 0.67 0.0 0 0 614.02 316.77
  C 605.29 295.66 591.71 279.05 575.25 263.54
  Q 576.73 263.12 577.34 262.34
  Q 587.53 249.18 599.32 237.31
  Q 630.61 258.59 657.71 285.36
  Q 658.83 286.48 659.97 285.38
  L 663.55 281.94
  Q 664.02 281.49 663.86 280.84
  Q 658.34 258.29 647.01 238.37
  Q 644.04 232.24 640.24 226.75
  C 603.75 173.92 544.53 147.59 481.98 142.29
  Q 480.39 142.16 477.75 142.29
  L 455.51 140.90
  Q 439.02 138.15 426.75 135.02
  C 412.71 131.44 389.18 120.38 388.99 103.02
  Q 388.84 89.50 395.46 77.66
  Q 396.49 75.83 395.70 77.78
  C 384.42 105.54 396.70 119.24 424.07 122.46
  C 454.35 126.02 485.28 126.59 515.74 128.38
  Q 546.78 130.20 576.50 139.26
  C 640.07 158.65 696.32 209.47 720.52 271.64
  Z
  M 740.61 282.19
  Q 755.55 294.68 770.40 305.61
  Q 771.99 306.79 773.84 307.79
  Q 774.42 308.11 774.38 307.44
  L 773.21 287.11
  Q 773.14 285.93 771.97 286.01
  Q 755.98 287.15 741.06 281.43
  A 0.45 0.45 0.0 0 0 740.61 282.19
  Z
  M 371.30 361.54
  C 376.21 361.25 380.43 361.81 385.21 362.48
  Q 385.74 362.56 386.13 362.18
  Q 394.01 354.65 404.32 351.07
  Q 405.43 350.69 404.26 350.84
  Q 386.82 353.14 371.20 361.18
  Q 370.38 361.60 371.30 361.54
  Z
  M 793.94 367.81
  Q 805.14 377.38 819.89 385.36
  A 0.45 0.45 0.0 0 0 820.39 384.61
  Q 806.64 373.65 791.43 364.78
  Q 790.67 364.34 791.19 365.04
  Q 792.06 366.21 793.94 367.81
  Z
  M 735.66 409.14
  Q 754.12 411.63 772.54 414.52
  C 792.03 417.58 808.79 424.39 818.83 442.35
  Q 819.14 442.91 819.14 442.27
  C 819.03 419.07 805.60 410.18 784.06 408.92
  C 772.54 408.24 761.49 408.39 749.47 408.38
  Q 742.79 408.37 735.68 408.65
  Q 732.91 408.77 735.66 409.14
  Z
  M 835.93 425.06
  C 838.42 427.00 843.96 427.13 847.13 427.73
  C 850.77 428.42 853.06 430.07 855.11 432.91
  C 856.83 435.28 859.27 439.46 862.79 438.52
  C 867.75 437.20 869.07 431.03 867.99 426.51
  Q 865.83 417.40 857.44 413.36
  C 850.99 410.25 838.98 408.84 834.42 416.17
  Q 831.19 421.38 835.93 425.06
  Z"
/>
<path fill="#462228" d="
  M 455.51 140.90
  L 477.75 142.29
  Q 484.86 144.14 492.11 145.29
  C 529.94 151.31 564.46 169.69 589.55 198.70
  Q 598.83 209.43 604.25 221.21
  Q 583.33 215.18 561.44 214.31
  Q 555.91 211.74 550.36 208.97
  C 492.09 179.95 426.36 166.22 361.50 165.21
  Q 361.52 164.58 362.00 164.52
  C 404.93 158.95 447.62 163.71 489.80 172.53
  A 0.53 0.53 0.0 0 0 490.25 171.61
  C 466.91 152.20 441.61 145.79 411.80 145.24
  Q 410.75 145.22 411.79 145.06
  Q 433.52 141.71 455.51 140.90
  Z"
/>
<path fill="#dc5f23" d="
  M 477.75 142.29
  Q 480.39 142.16 481.98 142.29
  C 544.53 147.59 603.75 173.92 640.24 226.75
  Q 644.04 232.24 647.01 238.37
  Q 635.69 232.48 625.17 228.35
  Q 615.67 224.61 604.25 221.21
  Q 598.83 209.43 589.55 198.70
  C 564.46 169.69 529.94 151.31 492.11 145.29
  Q 484.86 144.14 477.75 142.29
  Z"
/>
<path fill="#ffffff" d="
  M 361.50 165.21
  C 426.36 166.22 492.09 179.95 550.36 208.97
  Q 555.91 211.74 561.44 214.31
  Q 580.83 225.01 599.32 237.31
  Q 587.53 249.18 577.34 262.34
  Q 576.73 263.12 575.25 263.54
  Q 521.81 217.38 453.71 198.09
  C 405.72 184.50 355.62 179.84 305.90 179.95
  C 297.54 179.96 286.97 179.08 277.00 180.96
  Q 238.43 181.87 200.71 189.89
  Q 199.17 190.21 200.62 189.61
  Q 201.75 189.13 203.56 188.54
  C 254.97 171.63 307.46 165.07 361.50 165.21
  Z"
/>
<path fill="#eba341" d="
  M 575.25 263.54
  C 591.71 279.05 605.29 295.66 614.02 316.77
  A 0.67 0.67 0.0 0 1 613.44 317.70
  Q 605.77 318.09 597.99 317.17
  C 593.40 303.33 583.94 290.77 574.33 280.42
  Q 533.45 236.38 477.73 213.76
  Q 469.43 210.39 461.50 209.21
  Q 461.12 208.58 461.26 208.01
  Q 461.35 207.63 460.98 207.51
  C 401.76 188.14 340.64 181.02 277.00 180.96
  C 286.97 179.08 297.54 179.96 305.90 179.95
  C 355.62 179.84 405.72 184.50 453.71 198.09
  Q 521.81 217.38 575.25 263.54
  Z"
/>
<path fill="#462228" d="
  M 461.50 209.21
  Q 469.43 210.39 477.73 213.76
  Q 533.45 236.38 574.33 280.42
  C 583.94 290.77 593.40 303.33 597.99 317.17
  Q 582.03 314.87 568.01 307.23
  Q 565.71 305.98 563.90 303.71
  C 537.34 270.46 507.81 244.34 466.18 232.58
  C 434.99 223.76 405.72 222.51 372.29 222.00
  C 358.24 218.27 342.78 217.43 328.31 216.43
  Q 303.07 214.67 279.04 213.26
  Q 276.79 213.13 279.01 212.70
  Q 349.25 199.10 419.00 204.00
  C 433.71 205.03 447.33 207.22 461.50 209.21
  Z"
/>
<path fill="#f7e6b1" d="
  M 306.39 254.95
  Q 318.27 259.00 330.21 261.77
  Q 331.18 264.02 333.71 264.27
  Q 334.19 264.32 334.18 264.81
  Q 334.15 266.58 335.17 269.27
  Q 337.65 275.75 340.75 287.71
  Q 312.06 280.62 290.50 267.00
  Q 282.90 262.20 260.67 245.81
  Q 259.43 243.77 257.80 242.05
  C 249.40 233.17 242.04 221.95 235.18 211.61
  A 0.15 0.15 0.0 0 1 235.41 211.41
  Q 259.77 232.29 287.98 248.03
  Q 297.86 253.54 306.39 254.95
  Z"
/>
<path fill="#eba341" d="
  M 604.25 221.21
  Q 615.67 224.61 625.17 228.35
  Q 635.69 232.48 647.01 238.37
  Q 658.34 258.29 663.86 280.84
  Q 664.02 281.49 663.55 281.94
  L 659.97 285.38
  Q 658.83 286.48 657.71 285.36
  Q 630.61 258.59 599.32 237.31
  Q 580.83 225.01 561.44 214.31
  Q 583.33 215.18 604.25 221.21
  Z"
/>
<path fill="#462228" d="
  M 374.25 224.46
  Q 426.81 234.16 475.69 254.99
  A 0.19 0.19 0.0 0 1 475.64 255.36
  Q 448.75 258.29 423.00 266.29
  C 391.74 269.15 360.92 268.46 330.21 261.77
  Q 318.27 259.00 306.39 254.95
  Q 330.09 243.63 353.84 232.62
  Q 363.83 228.00 374.25 224.46
  Z"
/>
<path fill="#eba341" d="
  M 260.67 245.81
  Q 282.90 262.20 290.50 267.00
  Q 312.06 280.62 340.75 287.71
  Q 348.63 289.88 356.75 290.79
  L 356.99 291.01
  Q 357.22 291.22 356.94 291.36
  L 334.50 303.04
  C 321.57 297.88 310.77 290.78 299.25 283.96
  Q 277.54 267.31 260.67 245.81
  Z"
/>
<path fill="#ffffff" d="
  M 330.21 261.77
  C 360.92 268.46 391.74 269.15 423.00 266.29
  L 422.95 267.34
  Q 422.93 267.90 422.38 267.97
  C 418.29 268.54 412.31 271.25 405.98 273.20
  Q 393.75 276.96 360.24 290.22
  Q 358.82 290.78 356.75 290.79
  Q 348.63 289.88 340.75 287.71
  Q 337.65 275.75 335.17 269.27
  Q 334.15 266.58 334.18 264.81
  Q 334.19 264.32 333.71 264.27
  Q 331.18 264.02 330.21 261.77
  Z"
/>
<path fill="#eba341" d="
  M 720.52 271.64
  L 723.25 275.54
  L 725.60 285.74
  Q 725.76 286.43 725.09 286.18
  Q 699.13 276.37 673.89 264.84
  A 0.26 0.25 -28.0 0 1 674.04 264.36
  L 720.52 271.64
  Z"
/>
<path fill="#462228" d="
  M 299.25 283.96
  C 310.77 290.78 321.57 297.88 334.50 303.04
  L 318.37 313.31
  A 1.54 1.49 -55.9 0 1 317.32 313.53
  Q 305.06 311.61 292.74 310.73
  C 284.85 310.16 275.26 310.28 266.50 309.96
  C 254.71 300.21 245.53 287.50 237.41 274.68
  A 0.19 0.19 0.0 0 1 237.68 274.43
  C 254.98 287.43 279.30 297.03 299.25 283.96
  Z"
/>
<path fill="#eba341" d="
  M 740.61 282.19
  A 0.45 0.45 0.0 0 1 741.06 281.43
  Q 755.98 287.15 771.97 286.01
  Q 773.14 285.93 773.21 287.11
  L 774.38 307.44
  Q 774.42 308.11 773.84 307.79
  Q 771.99 306.79 770.40 305.61
  Q 755.55 294.68 740.61 282.19
  Z"
/>
<path fill="#ffffff" d="
  M 474.11 320.11
  Q 489.70 331.10 506.79 339.50
  Q 503.81 345.91 504.41 352.96
  Q 504.46 353.55 503.93 353.28
  Q 492.63 347.63 482.50 340.04
  C 464.58 324.34 450.46 308.68 433.46 289.75
  L 428.70 283.26
  Q 428.50 282.97 428.76 282.75
  Q 428.99 282.55 429.22 282.77
  Q 451.55 303.56 474.11 320.11
  Z"
/>
<path fill="#eba341" d="
  M 568.25 352.21
  L 568.41 351.96
  Q 568.55 351.75 568.39 351.55
  Q 557.04 336.67 549.44 319.45
  Q 543.62 303.38 539.98 286.51
  Q 539.64 284.93 540.29 286.41
  C 552.77 315.21 569.24 339.35 600.29 349.51
  Q 601.16 349.79 600.27 350.00
  Q 584.40 353.57 568.25 352.21
  Z"
/>
<path fill="#eba341" d="
  M 433.46 289.75
  C 450.46 308.68 464.58 324.34 482.50 340.04
  L 473.50 346.79
  L 461.73 335.73
  Q 460.45 330.89 457.70 327.55
  Q 449.44 317.47 440.69 303.31
  Q 435.83 295.45 433.46 289.75
  Z"
/>
<path fill="#462228" d="
  M 461.73 335.73
  L 473.50 346.79
  Q 504.19 376.46 536.00 395.25
  Q 566.67 413.36 605.00 416.79
  L 603.50 417.04
  Q 574.66 415.71 547.00 423.79
  Q 514.16 397.66 482.00 370.71
  Q 444.94 336.84 412.82 298.23
  Q 412.37 297.69 412.93 298.12
  Q 433.64 314.12 454.11 330.37
  Q 457.62 333.15 461.73 335.73
  Z"
/>
<path fill="#462228" d="
  M 549.44 319.45
  Q 557.04 336.67 568.39 351.55
  Q 568.55 351.75 568.41 351.96
  L 568.25 352.21
  Q 549.89 350.92 531.79 347.18
  A 2.52 2.49 78.4 0 1 530.20 346.12
  L 524.29 337.25
  Q 522.79 334.90 521.69 333.81
  Q 511.71 324.02 501.00 315.04
  L 493.59 308.93
  Q 492.67 308.17 493.72 308.73
  C 511.32 318.09 529.61 323.10 549.44 319.45
  Z"
/>
<path fill="#462228" d="
  M 679.50 320.04
  C 694.14 324.28 712.83 323.33 725.18 323.75
  Q 733.85 324.05 739.93 327.09
  C 750.64 332.45 764.62 340.82 770.99 325.46
  L 773.75 317.46
  Q 776.33 325.54 775.89 334.00
  Q 775.87 334.50 776.37 334.52
  L 799.04 335.29
  Q 806.59 335.33 812.25 330.21
  Q 812.69 330.92 812.68 331.33
  C 812.54 334.98 812.27 339.05 813.66 342.43
  C 817.21 351.06 822.63 355.24 829.69 360.81
  C 833.47 363.78 834.58 369.84 835.71 374.25
  C 824.15 369.10 815.70 361.16 805.54 354.00
  C 793.60 344.25 781.41 349.31 770.78 357.63
  Q 770.33 357.98 770.81 358.29
  L 777.21 362.41
  Q 784.40 369.09 790.26 376.83
  Q 790.90 377.68 790.03 377.07
  C 781.25 370.95 771.90 366.05 761.25 367.27
  C 755.62 367.92 747.32 371.29 739.77 371.03
  C 722.37 370.45 710.77 357.59 698.33 345.92
  C 691.28 339.30 682.13 339.12 673.20 335.66
  L 663.17 319.28
  L 659.75 312.01
  Q 659.44 311.35 660.07 311.71
  Q 669.31 317.00 679.50 320.04
  Z
  M 706.50 338.96
  L 703.94 340.04
  Q 703.46 340.24 703.84 340.61
  C 715.40 351.71 726.76 365.69 744.57 362.53
  Q 745.15 362.43 744.75 362.00
  Q 737.95 354.64 739.25 344.54
  L 742.07 338.26
  Q 742.29 337.79 741.80 337.61
  C 729.43 333.13 718.51 331.82 706.50 338.96
  Z
  M 748.69 359.06
  C 756.99 366.25 764.25 343.72 746.97 340.02
  Q 746.48 339.91 746.10 340.25
  C 740.63 345.09 744.29 355.26 748.69 359.06
  Z"
/>
<path fill="#eba341" d="
  M 770.99 325.46
  C 764.62 340.82 750.64 332.45 739.93 327.09
  Q 733.85 324.05 725.18 323.75
  C 712.83 323.33 694.14 324.28 679.50 320.04
  C 698.99 312.07 717.72 308.75 736.73 317.80
  Q 744.33 321.42 751.90 325.13
  Q 761.34 329.76 770.99 325.46
  Z"
/>
<path fill="#eba341" d="
  M 663.17 319.28
  L 673.20 335.66
  C 653.96 334.72 638.86 327.55 625.16 314.37
  Q 622.12 311.45 625.70 313.67
  Q 643.28 324.53 663.17 319.28
  Z"
/>
<path fill="#eba341" d="
  M 501.00 315.04
  Q 511.71 324.02 521.69 333.81
  Q 522.79 334.90 524.29 337.25
  C 523.83 339.25 523.09 343.17 521.06 343.69
  C 518.78 344.27 509.49 340.38 506.79 339.50
  Q 489.70 331.10 474.11 320.11
  Q 487.43 316.08 501.00 315.04
  Z"
/>
<path fill="#eba341" d="
  M 799.04 335.29
  L 776.37 334.52
  Q 775.87 334.50 775.89 334.00
  Q 776.33 325.54 773.75 317.46
  Q 773.73 316.86 773.97 316.61
  A 1.07 0.78 -46.3 0 1 775.23 316.38
  C 781.75 322.02 789.08 328.65 796.53 332.74
  Q 798.09 333.60 799.04 335.29
  Z"
/>
<path fill="#eba341" d="
  M 482.00 370.71
  Q 514.16 397.66 547.00 423.79
  L 528.04 431.50
  C 479.83 423.72 429.15 444.08 404.84 487.60
  C 389.59 514.92 386.63 545.24 391.46 576.00
  Q 382.18 573.52 373.19 576.04
  C 369.28 577.14 366.35 576.50 362.64 575.67
  Q 362.07 575.55 361.98 574.97
  L 358.77 554.93
  Q 358.68 554.36 358.18 554.63
  Q 344.56 561.83 330.81 567.96
  C 328.57 568.96 326.79 568.94 324.49 568.58
  Q 312.28 566.69 300.25 565.32
  A 1.63 1.61 79.1 0 1 299.02 564.48
  L 286.38 540.82
  A 0.03 0.03 0.0 0 0 286.33 540.83
  Q 285.73 559.51 288.16 578.06
  C 290.41 595.18 294.30 611.17 311.24 618.74
  C 313.56 619.78 325.14 625.14 327.00 624.27
  Q 333.18 621.36 351.76 612.02
  C 359.87 607.94 363.94 606.43 367.72 599.83
  A 0.40 0.40 0.0 0 1 368.38 599.76
  C 376.93 609.55 387.85 610.00 399.08 604.73
  Q 399.22 604.67 399.25 604.51
  Q 399.27 604.40 399.29 604.25
  L 400.96 608.50
  C 391.01 612.86 379.93 615.86 371.83 607.03
  A 0.95 0.94 50.2 0 0 370.57 606.91
  Q 352.67 620.38 333.78 632.45
  Q 333.30 632.76 332.73 632.68
  L 302.71 628.42
  Q 302.21 628.35 302.39 628.82
  C 311.11 651.39 325.78 674.50 348.56 685.44
  Q 349.04 685.67 349.49 685.38
  Q 366.68 674.18 381.77 660.27
  C 385.22 657.10 387.98 645.83 388.47 643.22
  Q 389.27 638.90 385.94 635.05
  Q 382.65 631.24 386.28 634.72
  Q 390.56 638.81 394.63 643.11
  Q 395.01 643.52 394.82 644.05
  C 392.39 650.83 389.85 659.04 385.03 664.51
  Q 378.05 672.40 370.80 680.05
  C 365.80 685.32 355.64 688.52 348.92 691.42
  A 0.33 0.33 0.0 0 0 348.81 691.95
  C 360.86 704.59 373.90 714.89 390.50 722.37
  C 395.15 724.46 399.44 724.56 404.30 724.04
  Q 404.78 723.99 405.10 723.64
  C 413.33 714.54 414.99 705.72 416.56 693.41
  C 417.85 683.22 416.89 675.16 413.52 665.96
  Q 413.29 665.33 413.80 665.77
  Q 422.94 673.62 432.27 681.24
  Q 434.70 683.22 437.40 684.74
  Q 437.79 684.96 437.94 684.53
  Q 438.74 682.12 440.27 680.07
  Q 440.74 679.45 440.76 680.22
  Q 440.90 685.22 439.46 690.02
  Q 439.25 690.72 438.61 690.37
  L 426.32 683.63
  A 0.61 0.61 0.0 0 0 425.43 684.23
  Q 426.95 698.50 426.93 713.15
  C 426.92 719.88 414.26 732.23 409.79 736.63
  Q 409.42 737.00 409.86 737.28
  C 415.82 741.24 422.95 744.75 430.23 744.95
  C 432.91 745.03 439.60 745.88 441.22 743.32
  C 444.17 738.65 447.77 733.31 448.94 728.20
  C 450.28 722.32 448.46 716.61 447.53 711.02
  Q 447.17 708.84 448.01 710.88
  Q 451.05 718.27 453.54 725.87
  C 454.84 729.84 446.72 746.04 444.63 750.34
  Q 444.42 750.78 444.74 751.14
  C 464.29 773.00 495.23 786.64 523.43 792.64
  C 595.59 808.00 669.01 785.23 722.29 735.31
  Q 726.40 731.46 728.77 729.76
  C 704.27 782.09 652.97 816.59 599.24 832.97
  Q 515.45 858.51 430.25 837.54
  Q 430.64 837.37 430.79 837.06
  Q 431.03 836.59 430.55 836.38
  Q 428.55 835.47 426.82 834.18
  C 371.78 793.16 324.73 740.22 295.39 677.82
  C 265.95 615.21 260.64 538.00 286.08 473.08
  C 297.97 442.72 319.10 412.12 346.86 394.57
  A 0.59 0.59 0.0 0 0 346.53 393.48
  Q 335.31 393.79 325.29 398.79
  Q 324.13 399.37 325.08 398.49
  Q 340.25 384.41 359.75 377.38
  C 360.67 377.05 366.31 374.52 366.83 374.78
  Q 367.24 374.99 366.86 375.24
  C 358.76 380.56 349.76 388.61 346.87 398.10
  C 342.53 412.35 349.00 428.67 355.46 442.30
  C 358.56 448.82 376.61 453.45 383.37 455.57
  A 2.07 2.05 -63.4 0 0 385.65 454.80
  Q 403.49 429.87 429.30 413.27
  Q 429.72 413.00 429.24 412.88
  Q 420.03 410.62 410.78 408.47
  C 400.94 406.19 395.20 403.35 387.42 397.80
  C 377.98 391.08 378.21 376.72 383.53 367.66
  Q 383.72 367.35 383.69 367.71
  C 382.87 378.67 387.73 385.87 393.91 394.83
  C 396.64 398.79 398.98 400.01 403.92 401.32
  Q 419.76 405.52 435.69 409.59
  A 1.22 1.18 -49.7 0 0 436.51 409.51
  Q 450.50 402.67 465.19 397.50
  Q 465.79 397.29 465.30 396.89
  C 452.80 386.83 440.54 380.80 425.20 373.26
  C 421.61 371.49 416.33 355.76 415.84 352.94
  C 415.17 349.08 416.88 344.80 418.66 341.44
  Q 418.93 340.93 418.42 340.65
  Q 413.52 337.98 408.02 337.10
  Q 407.35 337.00 407.95 336.68
  Q 420.16 330.19 433.99 329.08
  A 0.54 0.54 0.0 0 1 434.23 330.12
  Q 427.11 332.96 421.08 338.64
  C 415.49 343.91 419.47 351.24 422.27 357.26
  Q 425.94 365.14 427.59 367.45
  C 429.38 369.96 434.59 372.13 437.39 373.53
  C 449.96 379.84 459.58 384.66 473.90 382.27
  A 0.79 0.79 0.0 0 0 474.45 381.07
  L 468.29 370.94
  Q 467.91 370.31 468.64 370.43
  Q 474.10 371.33 479.59 370.72
  Q 480.03 370.67 480.41 370.90
  Q 481.25 371.42 482.00 370.71
  Z
  M 324.19 505.06
  C 327.55 506.74 334.83 509.84 338.93 508.70
  Q 351.74 505.15 364.05 499.77
  Q 364.58 499.54 364.74 498.99
  Q 369.84 481.87 378.46 466.23
  Q 378.70 465.80 378.21 465.77
  Q 363.38 464.84 349.64 459.25
  Q 349.13 459.04 348.82 458.59
  Q 335.19 438.83 332.33 414.99
  A 1.05 1.05 0.0 0 0 330.54 414.38
  C 320.21 424.80 303.91 446.48 303.76 461.82
  C 303.63 475.35 312.98 489.94 321.60 502.05
  C 322.25 502.96 323.07 504.51 324.19 505.06
  Z
  M 307.53 556.20
  C 310.81 558.91 318.51 560.81 326.46 562.86
  C 329.66 563.68 330.65 562.49 333.31 561.06
  Q 344.88 554.81 356.36 548.40
  C 357.51 547.76 358.27 546.95 358.24 545.50
  Q 357.94 530.84 360.20 516.22
  Q 360.31 515.48 359.67 515.88
  C 355.53 518.41 351.71 520.05 346.60 519.59
  Q 332.34 518.30 317.93 517.40
  Q 317.41 517.37 317.18 516.92
  Q 308.28 499.86 300.48 482.26
  Q 299.34 479.67 298.61 477.21
  A 0.53 0.52 -40.8 0 0 297.63 477.14
  C 290.02 493.48 287.11 510.91 287.03 528.73
  C 287.00 536.65 301.61 551.29 307.53 556.20
  Z"
/>
<path fill="#eba341" d="
  M 739.25 344.54
  Q 726.13 338.37 711.59 339.18
  C 709.84 339.28 708.46 340.22 706.50 338.96
  C 718.51 331.82 729.43 333.13 741.80 337.61
  Q 742.29 337.79 742.07 338.26
  L 739.25 344.54
  Z"
/>
<path fill="#f7e6b1" d="
  M 706.50 338.96
  C 708.46 340.22 709.84 339.28 711.59 339.18
  Q 726.13 338.37 739.25 344.54
  Q 737.95 354.64 744.75 362.00
  Q 745.15 362.43 744.57 362.53
  C 726.76 365.69 715.40 351.71 703.84 340.61
  Q 703.46 340.24 703.94 340.04
  L 706.50 338.96
  Z"
/>
<path fill="#b41f28" d="
  M 748.69 359.06
  C 744.29 355.26 740.63 345.09 746.10 340.25
  Q 746.48 339.91 746.97 340.02
  C 764.25 343.72 756.99 366.25 748.69 359.06
  Z"
/>
<path fill="#462228" d="
  M 226.50 340.21
  Q 245.44 341.20 263.51 346.10
  A 0.37 0.36 -53.9 0 1 263.61 346.76
  C 244.44 358.97 228.87 372.57 211.32 388.07
  Q 196.22 389.57 183.57 393.58
  C 168.67 398.31 156.55 405.27 145.64 414.10
  Q 144.56 414.98 145.25 413.77
  C 160.54 387.17 182.81 363.65 209.49 348.42
  C 215.64 344.90 220.43 343.38 225.20 340.51
  Q 225.61 340.27 226.09 340.23
  L 226.50 340.21
  Z"
/>
<path fill="#eba341" d="
  M 805.54 354.00
  C 801.61 360.21 787.99 359.59 781.17 360.55
  Q 780.59 360.63 780.52 361.21
  L 780.44 361.77
  Q 780.38 362.24 780.69 362.60
  Q 781.43 363.45 781.80 364.50
  Q 782.43 366.32 781.33 364.73
  Q 779.79 362.53 777.21 362.41
  L 770.81 358.29
  Q 770.33 357.98 770.78 357.63
  C 781.41 349.31 793.60 344.25 805.54 354.00
  Z"
/>
<path fill="#eba341" d="
  M 385.21 362.48
  C 380.43 361.81 376.21 361.25 371.30 361.54
  Q 370.38 361.60 371.20 361.18
  Q 386.82 353.14 404.26 350.84
  Q 405.43 350.69 404.32 351.07
  Q 394.01 354.65 386.13 362.18
  Q 385.74 362.56 385.21 362.48
  Z"
/>
<path fill="#eba341" d="
  M 793.94 367.81
  Q 792.06 366.21 791.19 365.04
  Q 790.67 364.34 791.43 364.78
  Q 806.64 373.65 820.39 384.61
  A 0.45 0.45 0.0 0 1 819.89 385.36
  Q 805.14 377.38 793.94 367.81
  Z"
/>
<path fill="#eba341" d="
  M 643.00 393.21
  L 641.54 394.50
  C 640.61 394.10 639.68 393.72 638.89 393.03
  Q 625.78 381.74 614.04 369.04
  Q 612.51 367.39 614.17 368.90
  Q 627.69 381.22 642.31 392.17
  Q 642.68 392.45 643.00 393.21
  Z"
/>
<path fill="#b41f28" d="
  M 643.00 393.21
  Q 662.20 406.70 682.91 417.64
  C 715.53 434.87 753.81 443.30 778.97 475.83
  A 1.10 1.07 -15.4 0 0 779.71 476.24
  Q 805.50 479.04 831.29 481.43
  C 843.66 482.57 854.94 487.21 867.00 489.79
  L 866.73 490.95
  Q 866.62 491.38 866.23 491.57
  Q 864.30 492.47 863.46 494.50
  L 850.50 494.04
  Q 846.80 492.72 843.79 495.00
  L 828.50 498.04
  Q 812.45 498.39 798.03 491.48
  C 797.52 491.23 797.10 491.28 796.56 491.15
  Q 793.79 487.52 788.26 486.24
  Q 780.19 484.38 777.25 484.04
  C 753.52 456.30 715.70 442.33 682.50 431.52
  C 670.20 427.51 656.96 420.79 651.80 408.63
  A 0.56 0.56 0.0 0 0 650.73 408.84
  C 650.64 419.15 653.05 428.00 658.66 436.89
  C 667.52 450.94 683.52 460.60 693.02 469.73
  Q 703.20 479.52 710.27 495.10
  Q 718.06 512.30 722.58 523.18
  C 726.38 532.36 736.58 528.53 744.46 530.00
  Q 761.54 533.18 772.60 547.68
  Q 782.55 560.71 788.79 572.93
  L 779.61 578.89
  Q 779.06 579.24 779.61 579.61
  L 789.58 586.19
  Q 796.28 590.44 800.50 583.51
  L 806.00 593.54
  L 804.50 595.29
  C 798.10 593.78 791.90 591.49 785.25 591.46
  C 780.62 591.44 775.93 593.17 772.02 593.77
  C 756.91 596.11 746.86 588.77 738.21 576.43
  Q 724.40 556.75 715.92 535.07
  C 707.53 513.64 700.82 495.28 686.48 478.70
  C 680.19 471.44 671.04 464.31 663.18 457.37
  Q 634.89 432.40 641.54 394.50
  L 643.00 393.21
  Z
  M 750.75 581.79
  C 757.42 587.62 760.58 581.09 762.11 575.78
  Q 764.66 566.95 763.28 557.67
  Q 763.55 552.45 762.27 546.88
  A 0.44 0.44 0.0 0 0 761.45 546.77
  Q 753.87 561.15 740.00 569.72
  Q 739.58 569.98 739.86 570.40
  Q 744.36 577.09 750.75 581.79
  Z"
/>
<path fill="#462228" d="
  M 777.25 484.04
  Q 781.14 503.51 773.83 519.94
  Q 772.15 523.71 775.34 521.09
  Q 789.97 509.06 796.56 491.15
  C 797.10 491.28 797.52 491.23 798.03 491.48
  Q 812.45 498.39 828.50 498.04
  Q 826.78 511.57 819.72 522.85
  A 0.46 0.46 0.0 0 0 820.35 523.49
  C 832.72 516.06 837.51 507.28 843.79 495.00
  Q 846.80 492.72 850.50 494.04
  Q 848.47 507.58 842.36 519.57
  A 0.42 0.42 0.0 0 0 842.98 520.10
  Q 856.88 510.22 863.46 494.50
  Q 864.30 492.47 866.23 491.57
  Q 866.62 491.38 866.73 490.95
  L 867.00 489.79
  C 875.15 490.24 882.63 482.21 885.75 475.46
  C 886.08 475.51 886.08 475.42 886.32 475.65
  Q 904.35 492.08 919.77 510.97
  C 926.30 518.96 935.69 532.29 944.43 541.15
  Q 950.50 547.29 956.74 552.51
  C 970.89 564.36 977.53 582.42 968.00 599.54
  C 962.96 608.60 956.16 617.18 951.44 625.48
  C 948.25 631.09 945.05 638.18 941.17 642.33
  C 930.74 653.50 912.84 650.04 901.66 642.09
  Q 894.34 636.88 888.17 630.22
  A 0.29 0.29 0.0 0 0 887.68 630.52
  C 893.81 646.96 900.98 664.89 910.37 679.74
  C 916.00 688.64 922.77 695.58 929.36 703.12
  C 945.52 721.60 942.66 740.10 929.17 758.42
  Q 915.61 776.81 908.06 785.32
  Q 900.51 793.82 888.33 797.10
  C 869.27 802.23 851.57 791.13 841.02 775.96
  C 833.13 764.60 825.74 754.68 813.07 748.68
  C 799.32 742.17 787.68 736.82 774.39 726.53
  Q 773.89 726.14 773.68 726.75
  Q 759.45 768.71 724.25 795.49
  A 0.30 0.30 0.0 0 0 724.42 796.03
  C 759.77 798.30 789.87 784.41 812.22 757.33
  Q 812.88 756.53 812.81 757.57
  C 810.30 796.76 791.37 836.61 760.08 860.66
  Q 758.77 861.66 760.42 861.61
  C 787.71 860.67 809.27 851.04 831.45 835.99
  Q 832.07 835.57 831.80 836.26
  C 809.17 893.55 757.72 924.67 699.46 935.98
  Q 697.91 936.28 699.43 936.72
  Q 734.62 946.89 771.25 946.29
  C 689.69 997.82 590.39 1021.46 494.50 1018.21
  C 490.35 1016.60 485.67 1015.98 481.92 1014.67
  Q 467.17 1009.55 462.58 1007.87
  Q 404.51 986.59 356.74 947.56
  C 352.72 944.28 344.71 938.74 340.89 934.10
  Q 312.05 899.00 293.00 857.98
  A 0.25 0.24 -66.3 0 0 292.55 858.16
  Q 295.45 867.89 298.46 877.31
  Q 308.60 909.07 326.01 937.57
  A 0.11 0.11 0.0 0 1 325.83 937.71
  Q 268.05 880.21 244.75 801.96
  C 238.37 778.26 234.95 754.33 236.70 729.75
  Q 237.28 721.63 239.47 713.82
  Q 239.64 713.22 240.00 713.72
  C 279.42 767.95 339.88 807.36 402.69 829.34
  Q 417.27 834.44 430.25 837.54
  Q 515.45 858.51 599.24 832.97
  C 652.97 816.59 704.27 782.09 728.77 729.76
  Q 729.70 728.59 730.39 727.17
  Q 746.86 693.21 750.07 655.72
  A 0.24 0.24 0.0 0 0 749.64 655.54
  Q 739.95 667.23 728.25 676.79
  C 726.34 675.33 720.44 670.14 718.50 669.79
  Q 710.45 664.45 701.56 660.64
  Q 701.00 660.39 701.11 661.00
  Q 704.16 677.06 702.54 693.37
  Q 702.49 693.82 702.89 694.03
  L 703.25 694.21
  Q 665.45 716.81 621.25 717.34
  Q 620.60 717.35 621.14 716.99
  Q 640.67 704.20 654.29 685.25
  Q 656.76 684.09 658.91 682.38
  Q 674.21 670.22 685.53 654.16
  Q 685.83 653.73 685.37 653.49
  Q 679.24 650.32 672.79 648.25
  Q 678.99 628.63 681.79 608.01
  Q 682.20 605.00 680.56 607.55
  Q 668.95 625.57 651.25 640.29
  C 638.84 636.82 623.19 634.33 610.73 637.89
  Q 590.69 643.60 578.21 661.73
  A 0.34 0.34 0.0 0 1 577.59 661.48
  Q 578.17 658.23 578.58 654.52
  C 581.42 628.74 594.23 596.01 618.39 582.79
  A 0.31 0.30 37.4 0 0 618.31 582.23
  C 574.96 571.75 523.75 584.31 494.20 619.18
  Q 469.36 648.49 478.21 686.25
  Q 425.38 661.50 400.96 608.50
  L 399.29 604.25
  Q 394.10 590.47 391.46 576.00
  C 386.63 545.24 389.59 514.92 404.84 487.60
  C 429.15 444.08 479.83 423.72 528.04 431.50
  C 504.63 444.54 484.25 461.26 464.67 479.41
  A 0.24 0.24 0.0 0 0 464.95 479.79
  Q 485.04 469.04 505.89 460.10
  C 534.95 457.63 563.39 463.36 590.43 475.09
  Q 596.03 477.52 610.50 484.71
  Q 599.87 488.25 593.18 491.44
  C 561.92 506.34 549.53 533.33 546.28 566.50
  A 0.35 0.35 0.0 0 0 546.96 566.67
  Q 551.46 556.02 559.04 547.25
  C 572.89 533.41 589.82 527.35 609.47 527.32
  Q 648.30 527.26 679.87 548.38
  C 694.01 557.84 707.04 571.52 718.04 584.71
  Q 733.86 603.71 748.87 623.42
  Q 749.17 623.82 749.67 623.90
  Q 769.78 627.22 790.04 625.59
  C 801.30 624.68 805.50 618.27 805.96 607.29
  Q 806.27 601.11 804.50 595.29
  L 806.00 593.54
  Q 821.06 582.73 824.18 564.36
  A 0.24 0.24 0.0 0 0 823.78 564.15
  Q 814.78 572.53 804.26 578.76
  C 803.36 579.29 802.47 580.46 801.79 581.25
  Q 804.19 575.68 805.46 569.75
  Q 806.80 562.98 806.88 555.99
  A 0.31 0.31 0.0 0 0 806.31 555.81
  Q 798.95 566.32 788.79 572.93
  Q 782.55 560.71 772.60 547.68
  Q 761.54 533.18 744.46 530.00
  C 736.58 528.53 726.38 532.36 722.58 523.18
  Q 718.06 512.30 710.27 495.10
  Q 703.20 479.52 693.02 469.73
  C 683.52 460.60 667.52 450.94 658.66 436.89
  C 653.05 428.00 650.64 419.15 650.73 408.84
  A 0.56 0.56 0.0 0 1 651.80 408.63
  C 656.96 420.79 670.20 427.51 682.50 431.52
  C 715.70 442.33 753.52 456.30 777.25 484.04
  Z"
/>
<path fill="#eba341" d="
  M 735.68 408.65
  Q 742.79 408.37 749.47 408.38
  C 761.49 408.39 772.54 408.24 784.06 408.92
  C 805.60 410.18 819.03 419.07 819.14 442.27
  Q 819.14 442.91 818.83 442.35
  C 808.79 424.39 792.03 417.58 772.54 414.52
  Q 754.12 411.63 735.66 409.14
  Q 732.91 408.77 735.68 408.65
  Z"
/>
<path fill="#462228" d="
  M 835.93 425.06
  Q 831.19 421.38 834.42 416.17
  C 838.98 408.84 850.99 410.25 857.44 413.36
  Q 865.83 417.40 867.99 426.51
  C 869.07 431.03 867.75 437.20 862.79 438.52
  C 859.27 439.46 856.83 435.28 855.11 432.91
  C 853.06 430.07 850.77 428.42 847.13 427.73
  C 843.96 427.13 838.42 427.00 835.93 425.06
  Z"
/>
<path fill="#f7e6b1" d="
  M 324.19 505.06
  C 323.07 504.51 322.25 502.96 321.60 502.05
  C 312.98 489.94 303.63 475.35 303.76 461.82
  C 303.91 446.48 320.21 424.80 330.54 414.38
  A 1.05 1.05 0.0 0 1 332.33 414.99
  Q 335.19 438.83 348.82 458.59
  Q 349.13 459.04 349.64 459.25
  Q 363.38 464.84 378.21 465.77
  Q 378.70 465.80 378.46 466.23
  Q 369.84 481.87 364.74 498.99
  Q 364.58 499.54 364.05 499.77
  Q 351.74 505.15 338.93 508.70
  C 334.83 509.84 327.55 506.74 324.19 505.06
  Z"
/>
<path fill="#eba341" d="
  M 605.00 416.79
  Q 606.15 416.54 607.24 416.82
  Q 608.07 417.04 607.22 417.18
  Q 605.35 417.49 603.50 417.04
  L 605.00 416.79
  Z"
/>
<path fill="#462228" d="
  M 152.21 529.00
  L 151.88 529.00
  Q 151.58 529.00 151.35 529.20
  Q 131.95 546.37 125.97 571.72
  A 0.17 0.17 0.0 0 1 125.64 571.68
  C 125.26 528.93 139.09 486.84 169.25 455.50
  Q 169.61 455.13 169.54 454.61
  L 169.40 453.59
  Q 180.15 449.01 191.31 446.14
  A 0.20 0.20 0.0 0 1 191.52 446.45
  Q 166.20 483.79 153.10 526.95
  Q 152.77 528.02 152.21 529.00
  Z"
/>
<path fill="#eba341" d="
  M 610.50 484.71
  Q 596.03 477.52 590.43 475.09
  C 563.39 463.36 534.95 457.63 505.89 460.10
  Q 519.47 451.30 535.75 450.49
  C 570.04 448.78 604.81 464.08 634.30 480.01
  Q 634.70 480.22 634.26 480.30
  L 610.50 484.71
  Z"
/>
<path fill="#f7e6b1" d="
  M 307.53 556.20
  C 301.61 551.29 287.00 536.65 287.03 528.73
  C 287.11 510.91 290.02 493.48 297.63 477.14
  A 0.53 0.52 -40.8 0 1 298.61 477.21
  Q 299.34 479.67 300.48 482.26
  Q 308.28 499.86 317.18 516.92
  Q 317.41 517.37 317.93 517.40
  Q 332.34 518.30 346.60 519.59
  C 351.71 520.05 355.53 518.41 359.67 515.88
  Q 360.31 515.48 360.20 516.22
  Q 357.94 530.84 358.24 545.50
  C 358.27 546.95 357.51 547.76 356.36 548.40
  Q 344.88 554.81 333.31 561.06
  C 330.65 562.49 329.66 563.68 326.46 562.86
  C 318.51 560.81 310.81 558.91 307.53 556.20
  Z"
/>
<path fill="#f7e6b1" d="
  M 777.25 484.04
  Q 780.19 484.38 788.26 486.24
  Q 793.79 487.52 796.56 491.15
  Q 789.97 509.06 775.34 521.09
  Q 772.15 523.71 773.83 519.94
  Q 781.14 503.51 777.25 484.04
  Z"
/>
<path fill="#f7e6b1" d="
  M 863.46 494.50
  Q 856.88 510.22 842.98 520.10
  A 0.42 0.42 0.0 0 1 842.36 519.57
  Q 848.47 507.58 850.50 494.04
  L 863.46 494.50
  Z"
/>
<path fill="#f7e6b1" d="
  M 843.79 495.00
  C 837.51 507.28 832.72 516.06 820.35 523.49
  A 0.46 0.46 0.0 0 1 819.72 522.85
  Q 826.78 511.57 828.50 498.04
  L 843.79 495.00
  Z"
/>
<path fill="#eba341" d="
  M 805.96 607.29
  C 805.50 618.27 801.30 624.68 790.04 625.59
  Q 769.78 627.22 749.67 623.90
  Q 749.17 623.82 748.87 623.42
  Q 733.86 603.71 718.04 584.71
  C 707.04 571.52 694.01 557.84 679.87 548.38
  Q 648.30 527.26 609.47 527.32
  C 589.82 527.35 572.89 533.41 559.04 547.25
  Q 558.71 546.78 558.15 546.54
  Q 557.64 546.31 558.01 545.90
  C 562.39 540.99 565.64 535.17 568.57 531.58
  C 581.52 515.67 602.03 509.30 622.00 510.53
  C 661.35 512.96 687.16 538.07 711.52 565.73
  Q 724.10 580.01 736.70 594.29
  C 746.58 605.48 758.26 616.02 773.74 615.78
  Q 790.98 615.52 805.96 607.29
  Z"
/>
<path fill="#f7e6b1" d="
  M 391.46 576.00
  Q 394.10 590.47 399.29 604.25
  Q 399.27 604.40 399.25 604.51
  Q 399.22 604.67 399.08 604.73
  C 387.85 610.00 376.93 609.55 368.38 599.76
  A 0.40 0.40 0.0 0 0 367.72 599.83
  C 363.94 606.43 359.87 607.94 351.76 612.02
  Q 333.18 621.36 327.00 624.27
  C 325.14 625.14 313.56 619.78 311.24 618.74
  C 294.30 611.17 290.41 595.18 288.16 578.06
  Q 285.73 559.51 286.33 540.83
  A 0.03 0.03 0.0 0 1 286.38 540.82
  L 299.02 564.48
  A 1.63 1.61 79.1 0 0 300.25 565.32
  Q 312.28 566.69 324.49 568.58
  C 326.79 568.94 328.57 568.96 330.81 567.96
  Q 344.56 561.83 358.18 554.63
  Q 358.68 554.36 358.77 554.93
  L 361.98 574.97
  Q 362.07 575.55 362.64 575.67
  C 366.35 576.50 369.28 577.14 373.19 576.04
  Q 382.18 573.52 391.46 576.00
  Z"
/>
<path fill="#f7e6b1" d="
  M 763.28 557.67
  Q 759.90 571.28 750.75 581.79
  Q 744.36 577.09 739.86 570.40
  Q 739.58 569.98 740.00 569.72
  Q 753.87 561.15 761.45 546.77
  A 0.44 0.44 0.0 0 1 762.27 546.88
  Q 763.55 552.45 763.28 557.67
  Z"
/>
<path fill="#f7e6b1" d="
  M 805.46 569.75
  L 804.25 569.75
  Q 803.74 569.75 803.51 570.20
  Q 798.48 579.83 789.58 586.19
  L 779.61 579.61
  Q 779.06 579.24 779.61 578.89
  L 788.79 572.93
  Q 798.95 566.32 806.31 555.81
  A 0.31 0.31 0.0 0 1 806.88 555.99
  Q 806.80 562.98 805.46 569.75
  Z"
/>
<path fill="#eba341" d="
  M 763.28 557.67
  Q 764.66 566.95 762.11 575.78
  C 760.58 581.09 757.42 587.62 750.75 581.79
  Q 759.90 571.28 763.28 557.67
  Z"
/>
<path fill="#f7e6b1" d="
  M 806.00 593.54
  L 800.50 583.51
  L 801.79 581.25
  C 802.47 580.46 803.36 579.29 804.26 578.76
  Q 814.78 572.53 823.78 564.15
  A 0.24 0.24 0.0 0 1 824.18 564.36
  Q 821.06 582.73 806.00 593.54
  Z"
/>
<path fill="#eba341" d="
  M 805.46 569.75
  Q 804.19 575.68 801.79 581.25
  L 800.50 583.51
  Q 796.28 590.44 789.58 586.19
  Q 798.48 579.83 803.51 570.20
  Q 803.74 569.75 804.25 569.75
  L 805.46 569.75
  Z"
/>
<path fill="#462228" d="
  M 183.21 575.50
  Q 185.72 632.89 199.04 688.75
  C 189.35 711.52 183.33 734.54 177.74 758.57
  Q 177.51 759.55 177.24 758.58
  C 163.15 707.56 158.51 650.08 175.77 598.97
  C 177.34 594.32 179.63 589.40 181.63 584.63
  C 182.87 581.67 182.73 578.65 183.21 575.50
  Z"
/>
<path fill="#dc5f23" d="
  M 651.25 640.29
  C 650.92 640.67 650.77 641.07 650.40 641.38
  C 617.77 668.63 580.98 686.88 538.75 693.42
  C 518.56 696.55 495.95 696.32 478.21 686.25
  Q 469.36 648.49 494.20 619.18
  C 523.75 584.31 574.96 571.75 618.31 582.23
  A 0.31 0.30 37.4 0 1 618.39 582.79
  C 594.23 596.01 581.42 628.74 578.58 654.52
  Q 578.17 658.23 577.59 661.48
  A 0.34 0.34 0.0 0 0 578.21 661.73
  Q 590.69 643.60 610.73 637.89
  C 623.19 634.33 638.84 636.82 651.25 640.29
  Z"
/>
<path fill="#f7e6b1" d="
  M 672.79 648.25
  Q 665.62 667.80 654.29 685.25
  Q 640.67 704.20 621.14 716.99
  Q 620.60 717.35 621.25 717.34
  Q 665.45 716.81 703.25 694.21
  Q 715.20 687.52 725.81 678.73
  L 728.25 676.79
  Q 739.95 667.23 749.64 655.54
  A 0.24 0.24 0.0 0 1 750.07 655.72
  Q 746.86 693.21 730.39 727.17
  Q 729.70 728.59 728.77 729.76
  Q 726.40 731.46 722.29 735.31
  C 669.01 785.23 595.59 808.00 523.43 792.64
  C 495.23 786.64 464.29 773.00 444.74 751.14
  Q 444.42 750.78 444.63 750.34
  C 446.72 746.04 454.84 729.84 453.54 725.87
  Q 451.05 718.27 448.01 710.88
  Q 447.17 708.84 447.53 711.02
  C 448.46 716.61 450.28 722.32 448.94 728.20
  C 447.77 733.31 444.17 738.65 441.22 743.32
  C 439.60 745.88 432.91 745.03 430.23 744.95
  C 422.95 744.75 415.82 741.24 409.86 737.28
  Q 409.42 737.00 409.79 736.63
  C 414.26 732.23 426.92 719.88 426.93 713.15
  Q 426.95 698.50 425.43 684.23
  A 0.61 0.61 0.0 0 1 426.32 683.63
  L 438.61 690.37
  Q 439.25 690.72 439.46 690.02
  Q 440.90 685.22 440.76 680.22
  Q 440.74 679.45 440.27 680.07
  Q 438.74 682.12 437.94 684.53
  Q 437.79 684.96 437.40 684.74
  Q 434.70 683.22 432.27 681.24
  Q 422.94 673.62 413.80 665.77
  Q 413.29 665.33 413.52 665.96
  C 416.89 675.16 417.85 683.22 416.56 693.41
  C 414.99 705.72 413.33 714.54 405.10 723.64
  Q 404.78 723.99 404.30 724.04
  C 399.44 724.56 395.15 724.46 390.50 722.37
  C 373.90 714.89 360.86 704.59 348.81 691.95
  A 0.33 0.33 0.0 0 1 348.92 691.42
  C 355.64 688.52 365.80 685.32 370.80 680.05
  Q 378.05 672.40 385.03 664.51
  C 389.85 659.04 392.39 650.83 394.82 644.05
  Q 395.01 643.52 394.63 643.11
  Q 390.56 638.81 386.28 634.72
  Q 382.65 631.24 385.94 635.05
  Q 389.27 638.90 388.47 643.22
  C 387.98 645.83 385.22 657.10 381.77 660.27
  Q 366.68 674.18 349.49 685.38
  Q 349.04 685.67 348.56 685.44
  C 325.78 674.50 311.11 651.39 302.39 628.82
  Q 302.21 628.35 302.71 628.42
  L 332.73 632.68
  Q 333.30 632.76 333.78 632.45
  Q 352.67 620.38 370.57 606.91
  A 0.95 0.94 50.2 0 1 371.83 607.03
  C 379.93 615.86 391.01 612.86 400.96 608.50
  Q 425.38 661.50 478.21 686.25
  C 495.95 696.32 518.56 696.55 538.75 693.42
  C 580.98 686.88 617.77 668.63 650.40 641.38
  C 650.77 641.07 650.92 640.67 651.25 640.29
  Q 668.95 625.57 680.56 607.55
  Q 682.20 605.00 681.79 608.01
  Q 678.99 628.63 672.79 648.25
  Z"
/>
<path fill="#dc5f23" d="
  M 672.79 648.25
  Q 679.24 650.32 685.37 653.49
  Q 685.83 653.73 685.53 654.16
  Q 674.21 670.22 658.91 682.38
  Q 656.76 684.09 654.29 685.25
  Q 665.62 667.80 672.79 648.25
  Z"
/>
<path fill="#dc5f23" d="
  M 718.50 669.79
  L 718.50 670.56
  Q 718.50 671.06 718.80 671.46
  L 722.31 676.00
  Q 722.65 676.44 723.21 676.49
  Q 725.35 676.68 725.81 678.73
  Q 715.20 687.52 703.25 694.21
  L 702.89 694.03
  Q 702.49 693.82 702.54 693.37
  Q 704.16 677.06 701.11 661.00
  Q 701.00 660.39 701.56 660.64
  Q 710.45 664.45 718.50 669.79
  Z"
/>
<path fill="#b41f28" d="
  M 718.50 669.79
  C 720.44 670.14 726.34 675.33 728.25 676.79
  L 725.81 678.73
  Q 725.35 676.68 723.21 676.49
  Q 722.65 676.44 722.31 676.00
  L 718.80 671.46
  Q 718.50 671.06 718.50 670.56
  L 718.50 669.79
  Z"
/>
</svg>
